<?xml version="1.0" standalone="no"?>
<!DOCTYPE svg PUBLIC "-//W3C//DTD SVG 20010904//EN"
 "http://www.w3.org/TR/2001/REC-SVG-20010904/DTD/svg10.dtd">
<svg version="1.0" xmlns="http://www.w3.org/2000/svg"
 width="310.000000pt" height="310.000000pt" viewBox="0 0 310.000000 310.000000"
 preserveAspectRatio="xMidYMid meet">
<metadata>
Created by potrace 1.11, written by Peter Selinger 2001-2013
</metadata>
<g transform="translate(0.000000,310.000000) scale(0.100000,-0.100000)"
fill="#000000" stroke="none">
<path d="M0 1550 l0 -1550 1550 0 1550 0 0 819 c0 711 -2 820 -15 831 -8 7
-41 16 -72 20 -83 12 -111 20 -124 36 -18 22 -2 29 34 16 18 -7 65 -16 105
-19 l72 -6 0 702 0 701 -1550 0 -1550 0 0 -1550z m1275 1253 c-4 -27 -14 -59
-22 -71 -27 -43 -6 -34 65 27 67 58 91 73 77 51 -3 -5 -7 -26 -9 -46 -2 -28
-11 -45 -36 -66 -19 -15 -32 -30 -29 -32 3 -3 26 13 52 35 26 22 47 36 47 31
0 -6 -16 -24 -35 -41 -20 -17 -31 -31 -26 -31 5 0 32 25 60 56 39 43 51 51 51
36 0 -11 -16 -41 -35 -66 -19 -25 -31 -46 -25 -46 11 0 100 108 100 123 0 5 3
8 6 4 4 -3 -5 -28 -20 -54 l-26 -48 35 40 c37 43 47 41 16 -3 -10 -15 -24 -37
-30 -50 l-12 -23 38 21 c21 12 57 32 81 46 23 14 42 21 42 14 0 -6 -28 -38
-62 -71 -48 -45 -56 -56 -33 -45 17 8 41 26 55 41 24 26 25 26 30 6 5 -19 7
-20 31 -7 25 13 26 12 21 -6 -3 -11 -23 -28 -46 -38 -48 -21 -87 -49 -68 -50
26 0 139 58 146 76 8 18 8 18 16 -1 5 -16 -1 -26 -31 -49 -21 -17 -37 -32 -34
-34 2 -2 30 10 61 27 32 17 59 29 62 27 2 -3 -5 -18 -17 -34 -24 -34 -27 -47
-8 -36 6 4 -1 -7 -17 -24 -17 -18 -28 -32 -25 -32 2 0 28 9 58 20 79 31 74 16
-8 -21 -39 -17 -71 -35 -71 -39 0 -11 53 1 70 16 8 7 28 17 43 23 36 14 26 -4
-14 -24 -16 -9 -27 -20 -23 -26 3 -5 -6 -19 -20 -30 -23 -18 -36 -49 -20 -49
12 0 124 73 124 81 0 5 8 9 18 9 10 0 28 9 40 20 12 11 31 20 42 20 13 0 19 4
14 11 -5 8 -1 8 14 0 28 -15 53 -15 32 0 -11 8 -8 9 15 5 l30 -6 -27 15 c-38
21 -35 27 10 19 45 -8 37 5 -10 16 l-33 8 31 1 c17 1 52 -6 78 -15 26 -9 49
-14 52 -11 3 3 -21 13 -53 22 -90 27 -91 27 -58 35 17 4 25 8 19 9 -5 0 -19 8
-30 17 -20 16 -13 16 32 -3 14 -5 15 -3 5 15 -19 36 -12 35 24 -2 19 -20 42
-36 50 -36 9 0 35 -9 57 -20 23 -11 44 -17 47 -14 8 8 -18 22 -77 41 -65 21
-86 49 -42 55 16 3 34 0 40 -6 6 -6 1 9 -10 31 -28 59 -25 64 11 20 17 -21 36
-36 42 -34 6 2 18 -3 26 -10 63 -55 106 -84 109 -73 3 7 10 6 23 -6 10 -9 27
-14 39 -11 16 4 29 -8 64 -62 60 -89 83 -153 96 -258 5 -48 15 -119 22 -156 9
-54 9 -70 -1 -76 -9 -6 -8 -11 4 -21 8 -7 15 -23 15 -37 0 -31 26 -82 57 -110
20 -19 25 -20 30 -7 5 13 8 12 24 -5 11 -11 19 -25 19 -31 0 -6 5 -8 10 -5 20
13 32 -6 17 -28 -34 -53 -64 -192 -52 -245 5 -24 10 -29 26 -25 11 3 30 1 42
-5 12 -5 38 -16 57 -23 72 -26 82 -53 16 -45 -24 3 -60 15 -80 27 -45 26 -66
19 -66 -21 0 -18 -5 -30 -13 -30 -7 0 -33 -28 -57 -62 -38 -52 -66 -89 -119
-154 -22 -27 -32 -58 -27 -79 3 -13 2 -27 -4 -30 -5 -3 -10 3 -10 15 0 18 -7
14 -55 -25 -31 -25 -59 -45 -63 -45 -5 0 -14 -16 -21 -35 -12 -34 -35 -47 -43
-23 -2 6 -14 -8 -26 -33 -12 -24 -22 -37 -22 -29 0 9 7 26 16 38 9 13 14 25
11 28 -7 7 -107 -87 -107 -101 0 -7 -12 -27 -26 -45 l-26 -31 28 13 c16 7 35
20 42 28 11 13 12 12 3 -5 -5 -11 -33 -29 -63 -40 -76 -30 -71 -50 14 -50 36
0 64 -3 61 -7 -2 -5 -12 -8 -21 -9 -14 0 -13 -2 3 -9 11 -4 31 -6 44 -3 16 4
22 2 17 -5 -4 -7 -35 -10 -91 -6 -73 4 -85 2 -85 -11 0 -9 -4 -13 -10 -10 -6
3 -7 -1 -4 -9 3 -9 13 -16 21 -16 8 0 12 4 9 9 -4 5 3 7 14 4 12 -3 20 0 20 8
0 7 3 9 6 6 11 -11 -17 -37 -40 -37 -18 -1 -17 -3 9 -17 25 -14 27 -18 12 -21
-18 -4 -18 -4 0 -24 17 -19 15 -19 -30 3 -43 21 -51 22 -95 10 -74 -20 -134
-49 -126 -62 3 -6 0 -15 -7 -20 -12 -7 -11 -9 1 -9 8 -1 29 -7 45 -15 29 -13
28 -13 -25 -8 l-55 5 25 -21 c28 -23 24 -26 -16 -10 -36 13 -75 4 -68 -16 4
-9 0 -15 -7 -15 -8 0 -32 -6 -54 -12 l-40 -12 40 -6 c26 -3 40 -10 40 -20 0
-12 -16 -16 -70 -18 -38 -2 -74 -7 -80 -13 -5 -6 -3 -9 7 -9 9 0 20 -5 23 -11
5 -7 -4 -8 -27 -4 -26 5 -38 2 -52 -14 -20 -22 -59 -26 -106 -11 l-25 8 27 1
c15 1 29 5 32 10 7 10 -76 41 -110 41 -17 0 -22 4 -18 15 5 11 -1 15 -20 15
-14 0 -26 4 -26 8 0 5 -18 14 -40 21 -22 7 -38 16 -35 21 3 5 1 11 -5 15 -25
15 -5 25 53 27 l62 1 -77 10 c-64 8 -78 13 -78 28 0 9 -6 20 -12 23 -7 4 16 4
52 2 56 -4 60 -3 30 6 -19 6 -51 16 -70 24 -31 11 -32 13 -10 14 25 1 25 1 5
16 -19 15 -17 16 30 10 l50 -6 -46 15 c-26 8 -50 22 -53 31 -6 15 1 16 56 11
64 -7 60 0 -12 22 l-35 10 38 -2 c38 -3 49 6 21 17 -9 3 -39 6 -67 7 -45 1
-48 2 -21 8 47 12 57 20 43 37 -14 17 -5 18 23 3 16 -9 19 -8 16 3 -3 7 -24
16 -49 19 -24 3 -38 7 -30 7 11 2 11 5 1 17 -10 12 -10 15 0 15 10 0 10 3 0
15 -7 8 -8 15 -2 15 5 0 15 -7 22 -15 17 -21 82 -21 74 0 -5 11 -2 13 10 9 9
-3 16 -2 16 2 -1 20 -17 32 -55 38 -22 4 -46 12 -52 18 -9 7 -13 7 -13 -1 0
-24 -38 9 -45 39 -4 16 -11 32 -16 35 -12 8 -11 -12 1 -36 7 -13 7 -19 0 -19
-5 0 -10 6 -10 13 0 8 -4 7 -10 -3 -8 -12 -10 -12 -10 -1 0 11 -4 10 -19 -3
-11 -10 -17 -24 -14 -32 3 -8 0 -14 -6 -14 -6 0 -12 -10 -12 -22 -1 -25 -17
32 -25 92 -14 97 -26 101 -44 15 -6 -30 -13 -55 -15 -55 -3 0 -12 25 -20 55
-9 30 -19 55 -22 55 -3 0 -3 -7 1 -15 3 -8 2 -15 -3 -15 -5 0 -23 36 -41 80
-18 44 -36 83 -41 86 -14 8 -11 -39 6 -86 17 -47 20 -100 6 -100 -5 0 -11 19
-14 43 -8 75 -30 167 -40 167 -6 0 -7 -33 -4 -82 4 -46 4 -77 1 -70 -8 18 -24
15 -24 -6 0 -10 -6 -27 -14 -37 -13 -18 -15 -16 -21 30 -10 79 -15 99 -25 89
-4 -5 -10 -20 -12 -34 -4 -21 -6 -18 -12 15 -4 22 -11 49 -16 60 -8 18 -9 18
-9 -5 -1 -14 -6 -32 -11 -40 -8 -12 -10 -10 -10 8 0 13 -4 20 -10 17 -6 -4
-10 10 -10 33 0 57 -26 64 -34 10 -8 -50 -15 -45 -18 10 -1 23 -3 42 -4 42 -2
0 -13 -18 -24 -39 -11 -22 -24 -42 -28 -45 -10 -6 -8 47 3 88 8 28 7 28 -30
-13 -21 -23 -40 -39 -43 -36 -3 3 6 18 20 33 24 25 48 64 48 76 0 3 -21 -15
-46 -40 -25 -25 -48 -43 -51 -40 -3 3 6 15 21 27 19 15 24 24 16 29 -8 5 -3
14 16 29 15 12 24 24 20 28 -3 3 -16 -3 -29 -14 -45 -41 -84 -37 -45 4 12 13
16 23 10 23 -6 0 -14 -4 -17 -10 -3 -5 -14 -10 -23 -9 -16 0 -16 1 0 12 15 10
15 12 0 24 -15 11 -14 12 7 13 l24 0 -23 25 c-13 13 -31 27 -42 31 -10 3 -18
10 -18 15 0 6 9 5 22 -2 18 -10 20 -9 15 5 -21 50 -20 51 9 26 l29 -25 -24 27
c-13 15 -29 26 -35 25 -6 -1 -10 4 -8 12 1 7 -5 20 -15 28 -10 8 -12 11 -3 7
8 -4 23 -14 33 -22 25 -22 30 -9 13 32 -17 40 -12 45 17 19 19 -17 20 -17 8 4
-6 12 -16 25 -21 28 -15 9 -12 22 6 22 16 0 57 -51 48 -60 -3 -3 -2 -13 3 -21
6 -11 9 2 11 40 1 31 9 66 17 77 11 15 15 17 16 7 0 -8 4 -5 9 8 5 12 14 22
20 22 5 0 9 3 9 8 -5 30 3 34 27 11 22 -21 24 -21 18 -4 -7 18 -6 18 9 6 15
-12 17 -11 17 7 0 12 -4 24 -10 27 -5 3 -10 11 -10 17 0 6 6 5 16 -3 13 -10
17 -10 24 0 8 14 17 3 48 -54 13 -22 14 -19 17 55 2 58 12 64 36 20 19 -33 20
-33 16 -7 -2 15 0 27 4 27 5 0 9 -4 9 -10 0 -26 20 -6 26 26 l7 37 18 -37 c10
-21 19 -54 21 -74 3 -33 5 -30 12 23 5 32 15 65 22 73 11 10 14 11 14 1 0 -10
3 -10 12 -1 20 20 28 14 29 -25 1 -37 1 -37 8 -8 l7 30 8 -33 c4 -19 5 -49 1
-69 -4 -21 -2 -33 3 -29 5 3 12 29 14 57 5 47 21 73 44 69 4 -1 11 4 15 12 6
9 10 3 15 -20 l7 -33 18 31 c22 36 29 38 23 8 -2 -14 0 -11 7 7 6 17 18 37 25
46 8 8 14 21 14 27 0 7 6 12 13 12 12 0 57 51 57 64 0 11 -83 -4 -106 -18 -34
-23 -41 -20 -15 8 l22 24 -33 12 -33 11 38 16 c20 8 37 22 38 32 0 9 2 37 4
62 l4 47 -44 -47 c-24 -25 -46 -43 -49 -40 -3 3 26 38 65 78 38 41 68 75 66
78 -6 6 -48 -15 -86 -42 -26 -19 -36 -22 -42 -13 -5 7 -13 14 -19 14 -5 1 -13
2 -16 3 -3 0 16 20 43 42 26 23 50 43 53 46 2 2 -4 1 -15 -3 -17 -7 -18 -6 -7
8 11 14 5 13 -39 -3 -29 -11 -61 -25 -71 -30 -39 -21 -15 3 32 32 28 17 50 33
50 35 0 3 -4 2 -10 -1 -5 -3 -10 -2 -10 4 0 5 19 16 43 24 l42 15 -55 2 c-49
1 -143 15 -130 19 3 1 23 4 45 6 22 3 65 14 95 25 57 21 57 21 -55 3 -36 -6
-39 -5 -26 10 12 15 10 17 -25 18 -38 1 -38 2 11 11 28 5 68 12 90 17 40 9 40
9 -17 10 -31 0 -69 6 -85 12 l-28 12 44 9 c31 7 40 12 30 18 -9 6 -1 11 29 16
65 10 50 22 -25 19 -53 -3 -58 -2 -23 3 l45 7 -30 12 c-16 7 -39 14 -50 16
-11 3 14 6 55 7 68 2 72 3 40 12 -37 10 -63 28 -41 28 7 0 10 4 7 9 -9 14 20
21 82 21 l57 0 -25 20 c-14 11 -40 25 -58 31 -51 17 -33 19 33 3 33 -7 66 -14
73 -14 23 0 4 17 -25 23 -16 3 -37 13 -48 21 -17 12 -12 12 27 -2 26 -9 50
-13 54 -9 4 4 -3 21 -15 38 -13 17 -20 33 -18 36 3 3 18 -14 33 -36 14 -23 27
-41 28 -41 1 0 2 16 2 35 0 19 5 40 12 47 9 9 12 4 12 -24 0 -52 16 -55 26 -5
7 40 8 41 12 12 5 -30 5 -30 12 -5 l8 25 1 -24 c1 -24 1 -24 23 -5 l22 19 -22
-32 c-12 -17 -22 -39 -22 -50 1 -34 46 31 54 76 9 57 19 52 11 -6z m-208
-1945 c-3 -8 -6 -5 -6 6 -1 11 2 17 5 13 3 -3 4 -12 1 -19z m1428 -358 c-3 -5
-13 -10 -21 -10 -8 0 -14 5 -14 10 0 6 9 10 21 10 11 0 17 -4 14 -10z"/>
<path d="M1320 2725 c-8 -9 -8 -15 -2 -15 12 0 26 19 19 26 -2 2 -10 -2 -17
-11z"/>
<path d="M1493 2620 c-18 -11 -33 -22 -33 -25 0 -5 41 15 70 34 28 19 -5 11
-37 -9z"/>
<path d="M1444 2614 c-18 -14 -18 -15 4 -4 12 6 22 13 22 15 0 8 -5 6 -26 -11z"/>
<path d="M2240 2596 c0 -2 8 -10 18 -17 15 -13 16 -12 3 4 -13 16 -21 21 -21
13z"/>
<path d="M1610 2540 c-9 -6 -10 -10 -3 -10 6 0 15 5 18 10 8 12 4 12 -15 0z"/>
<path d="M1712 2517 c-23 -25 -28 -37 -13 -37 10 0 45 50 39 56 -3 2 -14 -6
-26 -19z"/>
<path d="M993 2523 c9 -2 23 -2 30 0 6 3 -1 5 -18 5 -16 0 -22 -2 -12 -5z"/>
<path d="M1550 2505 c-11 -13 -10 -14 4 -9 9 3 16 10 16 15 0 13 -6 11 -20 -6z"/>
<path d="M970 2494 l-75 -13 68 4 c37 2 75 9 85 14 20 12 20 12 -78 -5z"/>
<path d="M1675 2460 c-3 -5 -2 -10 4 -10 5 0 13 5 16 10 3 6 2 10 -4 10 -5 0
-13 -4 -16 -10z"/>
<path d="M1625 2450 c3 -5 10 -10 16 -10 5 0 9 5 9 10 0 6 -7 10 -16 10 -8 0
-12 -4 -9 -10z"/>
<path d="M1940 2430 c0 -5 7 -10 15 -10 8 0 15 5 15 10 0 6 -7 10 -15 10 -8 0
-15 -4 -15 -10z"/>
<path d="M1640 2420 c-8 -5 -10 -10 -5 -10 6 0 17 5 25 10 8 5 11 10 5 10 -5
0 -17 -5 -25 -10z"/>
<path d="M1892 2405 c-12 -9 -22 -27 -22 -40 0 -13 -4 -27 -10 -30 -5 -3 -10
-13 -10 -22 0 -14 4 -13 23 5 20 19 28 20 57 12 45 -13 45 -13 30 5 -7 8 -19
15 -26 15 -22 0 -16 16 11 28 27 13 34 32 11 32 -8 0 -20 2 -28 5 -7 3 -23 -2
-36 -10z"/>
<path d="M1665 2390 c-3 -5 -2 -10 4 -10 5 0 13 5 16 10 3 6 2 10 -4 10 -5 0
-13 -4 -16 -10z"/>
<path d="M1024 2374 c-18 -14 -18 -15 6 -8 31 8 50 24 29 24 -8 0 -24 -7 -35
-16z"/>
<path d="M1953 2363 c9 -2 25 -2 35 0 9 3 1 5 -18 5 -19 0 -27 -2 -17 -5z"/>
<path d="M1766 2325 c-11 -8 -15 -15 -9 -15 6 0 16 7 23 15 16 19 11 19 -14 0z"/>
<path d="M1902 2290 c-11 -18 -10 -20 18 -20 16 0 30 5 30 10 0 6 -6 10 -12
10 -9 0 -8 4 2 10 12 8 12 10 -5 10 -11 0 -26 -9 -33 -20z"/>
<path d="M1850 2245 c0 -17 2 -18 24 -9 18 7 12 24 -10 24 -8 0 -14 -7 -14
-15z"/>
<path d="M1950 2240 c20 -13 33 -13 25 0 -3 6 -14 10 -23 10 -15 0 -15 -2 -2
-10z"/>
<path d="M2008 2223 c7 -3 16 -2 19 1 4 3 -2 6 -13 5 -11 0 -14 -3 -6 -6z"/>
<path d="M2060 2166 c28 -17 50 -21 35 -7 -6 5 -21 12 -35 15 l-25 7 25 -15z"/>
<path d="M1138 2073 c7 -3 16 -2 19 1 4 3 -2 6 -13 5 -11 0 -14 -3 -6 -6z"/>
<path d="M1125 2046 c-91 -34 -132 -54 -113 -55 17 -1 45 10 148 57 59 27 41
26 -35 -2z"/>
<path d="M1137 2016 c-64 -27 -79 -36 -55 -36 29 0 106 32 112 46 3 8 4 14 3
14 -1 0 -28 -11 -60 -24z"/>
<path d="M1213 1958 c-20 -10 -32 -28 -18 -28 12 0 55 24 55 32 0 10 -9 9 -37
-4z"/>
<path d="M1985 1948 c-4 -9 -5 -26 -3 -38 3 -22 3 -22 20 -3 16 17 16 22 4 39
-13 17 -15 17 -21 2z"/>
<path d="M1130 1909 c-18 -15 -20 -19 -7 -15 10 3 25 6 33 6 8 0 14 7 14 15 0
20 -10 19 -40 -6z"/>
<path d="M1205 1920 c-16 -7 -17 -9 -3 -9 9 -1 20 4 23 9 7 11 7 11 -20 0z"/>
<path d="M1184 1879 c-55 -21 -113 -69 -65 -54 21 6 118 60 130 71 9 9 -16 2
-65 -17z"/>
<path d="M2000 1881 c-14 -28 13 -147 34 -146 10 0 18 35 17 70 0 11 -1 30 -1
42 0 12 -8 24 -18 26 -16 4 -16 5 1 6 24 1 22 21 -3 21 -10 0 -24 -9 -30 -19z"/>
<path d="M2581 1884 c0 -11 3 -14 6 -6 3 7 2 16 -1 19 -3 4 -6 -2 -5 -13z"/>
<path d="M1070 1866 c-8 -10 -8 -21 -2 -32 5 -9 7 -25 5 -35 -6 -22 3 -23 36
-5 l24 13 -28 7 -28 7 29 30 28 29 -26 0 c-14 0 -31 -7 -38 -14z"/>
<path d="M2601 1842 c-15 -28 -14 -37 2 -23 8 6 17 8 20 4 10 -9 8 10 -2 26
-7 11 -11 10 -20 -7z"/>
<path d="M1041 1834 c0 -11 3 -14 6 -6 3 7 2 16 -1 19 -3 4 -6 -2 -5 -13z"/>
<path d="M1158 1813 c7 -3 16 -2 19 1 4 3 -2 6 -13 5 -11 0 -14 -3 -6 -6z"/>
<path d="M1280 1810 c-13 -8 -12 -10 3 -10 9 0 17 5 17 10 0 12 -1 12 -20 0z"/>
<path d="M1166 1783 c-4 -4 -19 -8 -34 -9 -57 -3 -57 -3 -44 -16 9 -9 28 -8
82 2 39 7 73 17 76 22 6 10 -70 11 -80 1z"/>
<path d="M821 1764 c0 -11 3 -14 6 -6 3 7 2 16 -1 19 -3 4 -6 -2 -5 -13z"/>
<path d="M1027 1748 c8 -46 13 -48 13 -5 0 21 -4 37 -10 37 -5 0 -7 -14 -3
-32z"/>
<path d="M980 1753 c0 -12 5 -25 10 -28 13 -8 13 15 0 35 -8 12 -10 11 -10 -7z"/>
<path d="M1840 1740 c-7 -13 -9 -37 -5 -61 4 -24 3 -39 -3 -39 -6 0 -7 -10 -4
-22 5 -22 5 -22 -11 -6 -9 9 -17 22 -17 28 0 6 -4 9 -9 6 -5 -3 -11 4 -14 15
-5 19 -10 21 -39 14 -18 -4 -38 -7 -45 -8 -18 -1 -40 -47 -25 -56 16 -10 4
-47 -20 -58 -19 -8 -15 -11 28 -27 61 -23 74 -33 74 -57 0 -23 -43 -36 -73
-21 -12 5 -50 30 -84 55 -50 37 -64 54 -73 87 -9 33 -15 40 -35 40 -14 0 -25
-5 -25 -11 0 -5 -4 -7 -10 -4 -16 10 -12 25 8 26 9 1 1 5 -18 10 -19 4 -40 6
-47 4 -7 -2 -15 1 -19 7 -4 6 -13 -7 -20 -28 -13 -38 -6 -64 19 -64 5 0 2 10
-9 22 -10 11 10 0 46 -27 75 -54 120 -79 120 -66 0 4 16 1 35 -7 19 -9 35 -22
35 -29 0 -7 5 -13 11 -13 17 0 -1 -21 -27 -30 -13 -5 -24 -15 -24 -22 0 -9 3
-9 12 0 22 22 52 12 78 -24 14 -20 33 -44 43 -54 14 -13 15 -20 6 -25 -8 -5
-10 -4 -5 3 4 7 2 12 -3 12 -6 0 -11 -9 -11 -19 0 -11 -7 -27 -16 -35 -8 -9
-13 -16 -9 -16 4 0 -1 -7 -9 -16 -26 -26 -9 -34 74 -34 43 0 82 -5 85 -10 4
-6 12 -7 18 -4 8 5 8 3 0 -7 -15 -16 -17 -33 -3 -24 17 11 11 -5 -15 -39 -30
-40 -31 -56 -5 -79 20 -16 23 -16 67 4 43 20 48 20 73 5 29 -17 42 -13 33 10
-3 8 0 14 7 14 6 0 9 -4 6 -9 -6 -9 16 -21 37 -21 7 0 6 4 -3 10 -13 8 -12 10
4 10 15 0 17 5 13 30 -4 16 -2 32 3 35 6 4 -6 30 -27 61 -27 39 -44 54 -61 54
-18 0 -28 11 -45 50 -12 27 -30 52 -39 56 -21 6 -24 34 -6 52 9 9 6 12 -15 12
-20 0 -27 5 -27 20 0 11 4 20 9 20 6 0 7 15 4 34 -4 28 -1 39 20 60 26 26 36
26 110 -3 23 -9 27 -16 27 -51 0 -29 4 -40 15 -40 21 0 19 -22 -5 -43 -24 -21
-26 -44 -3 -69 9 -10 17 -36 17 -58 1 -50 39 -104 67 -95 13 4 28 0 40 -10 15
-14 22 -15 33 -6 11 9 21 10 38 1 l23 -11 -22 17 c-13 9 -23 23 -23 30 0 8 -5
14 -11 14 -6 0 -8 -9 -4 -22 5 -20 5 -21 -5 -5 -18 29 -6 44 32 39 l33 -4 -32
24 c-30 21 -51 58 -34 58 11 0 41 -34 41 -46 0 -5 11 -10 25 -10 16 -1 24 3
22 10 -2 6 8 16 22 23 l26 11 -30 1 -30 1 25 20 c20 16 22 20 8 20 -10 0 -18
5 -18 11 0 5 -5 7 -12 3 -8 -5 -9 -2 -5 9 5 12 1 17 -12 17 -33 0 -47 27 -32
63 7 18 14 43 15 57 2 14 6 33 11 44 5 12 3 21 -6 27 -17 11 -39 12 -38 2 4
-24 -4 -33 -28 -33 -36 0 -89 33 -98 59 -3 12 -11 21 -17 21 -15 0 -85 74 -92
98 -14 43 -69 64 -86 32z"/>
<path d="M1276 1705 c-3 -9 -2 -24 3 -33 4 -9 6 -22 4 -29 -6 -16 24 -83 37
-83 6 0 4 12 -6 31 -8 17 -18 52 -20 77 -5 52 -9 60 -18 37z"/>
<path d="M1350 1710 c0 -12 28 -25 36 -17 3 3 -4 10 -15 17 -15 7 -21 7 -21 0z"/>
<path d="M2102 1700 c-14 -23 -8 -40 14 -40 8 0 13 -4 10 -9 -3 -5 1 -14 9
-21 13 -11 15 -8 15 14 0 14 -4 26 -8 26 -5 0 -8 10 -8 21 1 29 -16 34 -32 9z"/>
<path d="M1210 1691 c0 -11 5 -23 10 -26 6 -4 8 -11 5 -16 -4 -5 -1 -17 4 -26
8 -15 10 -11 11 19 0 20 3 43 6 52 4 12 0 16 -15 16 -14 0 -21 -6 -21 -19z"/>
<path d="M1185 1690 c3 -5 8 -10 11 -10 2 0 4 5 4 10 0 6 -5 10 -11 10 -5 0
-7 -4 -4 -10z"/>
<path d="M1310 1693 c0 -4 5 -15 10 -23 8 -13 10 -13 10 2 0 9 -4 20 -10 23
-5 3 -10 3 -10 -2z"/>
<path d="M907 1669 c4 -13 8 -18 11 -10 2 7 -1 18 -6 23 -8 8 -9 4 -5 -13z"/>
<path d="M992 1680 c0 -8 4 -26 8 -40 6 -20 8 -21 8 -5 0 11 -3 29 -8 40 -5
12 -8 14 -8 5z"/>
<path d="M1131 1675 c0 -5 6 -19 14 -29 8 -11 15 -15 15 -10 0 6 -7 19 -15 30
-8 10 -14 15 -14 9z"/>
<path d="M490 1640 c11 -19 20 -43 20 -53 0 -10 5 -15 10 -12 18 11 11 34 -20
67 l-31 33 21 -35z"/>
<path d="M552 1620 c0 -19 2 -27 5 -17 2 9 2 25 0 35 -3 9 -5 1 -5 -18z"/>
<path d="M710 1606 c0 -8 5 -18 10 -21 6 -3 10 3 10 14 0 12 -4 21 -10 21 -5
0 -10 -6 -10 -14z"/>
<path d="M1590 1560 c8 -5 20 -10 25 -10 6 0 3 5 -5 10 -8 5 -19 10 -25 10 -5
0 -3 -5 5 -10z"/>
<path d="M1380 1557 c0 -2 14 -13 30 -25 17 -13 30 -19 30 -14 0 4 -13 16 -30
25 -16 10 -30 16 -30 14z"/>
<path d="M1920 1464 c0 -13 -3 -14 -15 -4 -12 10 -15 10 -15 -3 0 -8 7 -17 15
-21 18 -6 41 29 25 39 -5 3 -10 -1 -10 -11z"/>
<path d="M356 1437 c3 -10 9 -15 12 -12 3 3 0 11 -7 18 -10 9 -11 8 -5 -6z"/>
<path d="M2270 1430 c0 -5 5 -10 10 -10 6 0 10 5 10 10 0 6 -4 10 -10 10 -5 0
-10 -4 -10 -10z"/>
<path d="M1560 1376 c0 -3 9 -10 20 -16 11 -6 20 -8 20 -6 0 3 -9 10 -20 16
-11 6 -20 8 -20 6z"/>
<path d="M482 1196 c-12 -32 -20 -61 -18 -63 7 -7 47 90 44 107 -2 8 -13 -12
-26 -44z"/>
<path d="M620 1176 c0 -14 5 -26 10 -26 6 0 10 9 10 19 0 11 -4 23 -10 26 -6
4 -10 -5 -10 -19z"/>
<path d="M650 1125 c0 -14 5 -25 10 -25 6 0 10 11 10 25 0 14 -4 25 -10 25 -5
0 -10 -11 -10 -25z"/>
<path d="M1668 1114 c-13 -13 -9 -23 14 -35 18 -10 20 -9 15 5 -4 10 -1 16 8
16 8 0 15 -4 15 -8 0 -5 14 -7 31 -4 17 3 27 8 22 13 -12 12 -96 23 -105 13z"/>
<path d="M685 1058 c10 -60 21 -67 29 -18 7 46 2 60 -20 60 -13 0 -14 -8 -9
-42z"/>
<path d="M1621 1081 c-8 -6 -2 -12 19 -21 38 -16 45 -10 16 12 -13 9 -28 13
-35 9z"/>
<path d="M1010 1051 c0 -5 5 -13 10 -16 6 -3 10 -2 10 4 0 5 -4 13 -10 16 -5
3 -10 2 -10 -4z"/>
<path d="M1555 1030 c3 -5 8 -10 11 -10 2 0 4 5 4 10 0 6 -5 10 -11 10 -5 0
-7 -4 -4 -10z"/>
<path d="M960 1020 c0 -5 5 -10 11 -10 5 0 7 5 4 10 -3 6 -8 10 -11 10 -2 0
-4 -4 -4 -10z"/>
<path d="M1191 1014 c0 -11 3 -14 6 -6 3 7 2 16 -1 19 -3 4 -6 -2 -5 -13z"/>
<path d="M915 1000 c-9 -27 6 -50 16 -24 4 10 8 25 8 32 1 20 -17 14 -24 -8z"/>
<path d="M1231 1004 c0 -11 3 -14 6 -6 3 7 2 16 -1 19 -3 4 -6 -2 -5 -13z"/>
<path d="M1485 1010 c3 -5 14 -10 23 -10 15 0 15 2 2 10 -20 13 -33 13 -25 0z"/>
<path d="M999 988 c0 -12 -2 -30 -3 -38 -2 -8 0 -24 4 -35 7 -18 10 -16 26 18
13 28 15 42 8 54 -17 26 -34 27 -35 1z"/>
<path d="M1150 991 c0 -6 5 -13 10 -16 6 -3 10 1 10 9 0 9 -4 16 -10 16 -5 0
-10 -4 -10 -9z"/>
<path d="M1180 968 c0 -15 -5 -39 -10 -54 -13 -32 -6 -41 38 -50 26 -5 31 -4
27 8 -4 10 -15 13 -33 10 -22 -4 -25 -2 -14 9 14 15 16 68 2 89 -8 12 -10 9
-10 -12z"/>
<path d="M1285 970 c-3 -5 -1 -10 4 -10 6 0 11 5 11 10 0 6 -2 10 -4 10 -3 0
-8 -4 -11 -10z"/>
<path d="M1100 950 c0 -17 23 -60 33 -60 5 0 7 10 3 23 -3 12 -6 28 -6 35 0 6
-7 12 -15 12 -8 0 -15 -4 -15 -10z"/>
<path d="M1150 950 c0 -5 5 -10 11 -10 5 0 7 5 4 10 -3 6 -8 10 -11 10 -2 0
-4 -4 -4 -10z"/>
<path d="M1318 953 c7 -3 16 -2 19 1 4 3 -2 6 -13 5 -11 0 -14 -3 -6 -6z"/>
<path d="M2156 903 c-6 -14 -5 -15 5 -6 7 7 10 15 7 18 -3 3 -9 -2 -12 -12z"/>
<path d="M1265 900 c3 -5 8 -10 11 -10 2 0 4 5 4 10 0 6 -5 10 -11 10 -5 0 -7
-4 -4 -10z"/>
<path d="M2038 613 c7 -3 16 -2 19 1 4 3 -2 6 -13 5 -11 0 -14 -3 -6 -6z"/>
<path d="M1910 570 c-8 -5 -10 -10 -5 -10 6 0 17 5 25 10 8 5 11 10 5 10 -5 0
-17 -5 -25 -10z"/>
<path d="M1290 390 c0 -5 17 -10 38 -9 30 0 33 2 17 9 -28 12 -55 12 -55 0z"/>
</g>
</svg>
