<?xml version="1.0" encoding="UTF-8" standalone="no"?>
<!-- Created with Inkscape (http://www.inkscape.org/) -->

<svg
   xmlns:osb="http://www.openswatchbook.org/uri/2009/osb"
   xmlns:dc="http://purl.org/dc/elements/1.1/"
   xmlns:cc="http://creativecommons.org/ns#"
   xmlns:rdf="http://www.w3.org/1999/02/22-rdf-syntax-ns#"
   xmlns:svg="http://www.w3.org/2000/svg"
   xmlns="http://www.w3.org/2000/svg"
   xmlns:xlink="http://www.w3.org/1999/xlink"
   xmlns:sodipodi="http://sodipodi.sourceforge.net/DTD/sodipodi-0.dtd"
   xmlns:inkscape="http://www.inkscape.org/namespaces/inkscape"
   id="svg3055"
   version="1.1"
   inkscape:version="0.48.2 r9819"
   width="3210"
   height="850"
   sodipodi:docname="ghouselogo2.eps">
  <metadata
     id="metadata3061">
    <rdf:RDF>
      <cc:Work
         rdf:about="">
        <dc:format>image/svg+xml</dc:format>
        <dc:type
           rdf:resource="http://purl.org/dc/dcmitype/StillImage" />
        <dc:title></dc:title>
      </cc:Work>
    </rdf:RDF>
  </metadata>
  <defs
     id="defs3059">
    <linearGradient
       id="linearGradient5866"
       osb:paint="solid">
      <stop
         style="stop-color:#4a3365;stop-opacity:1;"
         offset="0"
         id="stop5868" />
    </linearGradient>
    <linearGradient
       id="linearGradient5860"
       osb:paint="solid">
      <stop
         style="stop-color:#4a3365;stop-opacity:1;"
         offset="0"
         id="stop5862" />
    </linearGradient>
    <linearGradient
       id="linearGradient5830"
       osb:paint="solid">
      <stop
         style="stop-color:#4a3365;stop-opacity:1;"
         offset="0"
         id="stop5832" />
    </linearGradient>
    <linearGradient
       id="linearGradient5816"
       osb:paint="solid">
      <stop
         style="stop-color:#4a3365;stop-opacity:1;"
         offset="0"
         id="stop5818" />
    </linearGradient>
    <linearGradient
       id="linearGradient5804"
       osb:paint="solid">
      <stop
         style="stop-color:#4a3365;stop-opacity:1;"
         offset="0"
         id="stop5806" />
    </linearGradient>
    <linearGradient
       id="linearGradient5774"
       osb:paint="solid">
      <stop
         style="stop-color:#4a3365;stop-opacity:1;"
         offset="0"
         id="stop5776" />
    </linearGradient>
    <linearGradient
       id="linearGradient5740"
       osb:paint="solid">
      <stop
         style="stop-color:#000000;stop-opacity:1;"
         offset="0"
         id="stop5742" />
    </linearGradient>
    <linearGradient
       id="linearGradient5730"
       osb:paint="solid">
      <stop
         style="stop-color:#000000;stop-opacity:1;"
         offset="0"
         id="stop5732" />
    </linearGradient>
    <linearGradient
       inkscape:collect="always"
       xlink:href="#linearGradient5804"
       id="linearGradient5812"
       gradientUnits="userSpaceOnUse"
       x1="904.34961"
       y1="430.97754"
       x2="3177.6406"
       y2="430.97754"
       gradientTransform="translate(-16,4)" />
  </defs>
  <sodipodi:namedview
     pagecolor="#ffffff"
     bordercolor="#666666"
     borderopacity="1"
     objecttolerance="10"
     gridtolerance="10"
     guidetolerance="10"
     inkscape:pageopacity="0"
     inkscape:pageshadow="2"
     inkscape:window-width="1806"
     inkscape:window-height="1006"
     id="namedview3057"
     showgrid="false"
     inkscape:zoom="0.1767767"
     inkscape:cx="494.36397"
     inkscape:cy="275.88312"
     inkscape:window-x="0"
     inkscape:window-y="0"
     inkscape:window-maximized="0"
     inkscape:current-layer="svg3055"
     showguides="true"
     inkscape:guide-bbox="true" />
  <path
     style="fill:none;stroke:#000000;stroke-width:8;stroke-linecap:round;stroke-linejoin:round;stroke-miterlimit:4;stroke-opacity:1;stroke-dasharray:none"
     d="m 222,48 c -20.48667,9.829208 -35.0689,30.623569 -40,69 -5.34614,15 -14.27942,30 -16,45 -2.50615,24.08641 -6.00746,53.6704 7,70 27.0022,41.22336 81.93972,29.01539 86,-9 2.80566,-2.10565 15.13204,5.5602 18,19 l 6,-25 c 24.23611,40.25175 73.48856,32.62017 80,-7 -1.11548,-11.89763 1.69235,-25.94863 -7,-53 -9.98123,-18.27703 -17.64863,-29.61255 -25,-40 C 313.42141,87.549643 294.72167,79.649231 270,60 258.58756,49.496411 241.4118,45.197177 222,48 z"
     id="path3084"
     inkscape:connector-curvature="0"
     sodipodi:nodetypes="cccccccccccc" />
  <g
     inkscape:groupmode="layer"
     id="layer1"
     inkscape:label="Layer"
     style="opacity:1" />
  <g
     inkscape:groupmode="layer"
     id="layer2"
     inkscape:label="Layer2"
     style="opacity:1" />
  <path
     style="fill:none;stroke:#000000;stroke-width:12;stroke-linecap:butt;stroke-linejoin:miter;stroke-miterlimit:4;stroke-opacity:1;stroke-dasharray:none"
     d="m 323,657 c -0.68262,-17.92022 -1.63545,-6.48942 3,-51 25.53861,62.6425 -39.79446,-252.59168 -49,-375 l -1,5"
     id="path3937"
     inkscape:connector-curvature="0"
     sodipodi:nodetypes="cccc" />
  <path
     style="fill:none;stroke:#000000;stroke-width:4;stroke-linecap:round;stroke-linejoin:round;stroke-opacity:1;stroke-miterlimit:4;stroke-dasharray:32,8,4,8;stroke-dashoffset:0"
     d="m 231,65 40,134 -2,-1"
     id="path3939"
     inkscape:connector-curvature="0" />
  <path
     style="fill:none;stroke:#000000;stroke-width:4;stroke-linecap:round;stroke-linejoin:round;stroke-miterlimit:4;stroke-opacity:1;stroke-dasharray:16, 8, 4, 8;stroke-dashoffset:0;marker-start:none;marker-mid:none"
     d="m 305,129 c -3.32996,20.79865 -17.46544,50.86926 -34,76.94975 C 245.53558,189.97971 220.24264,168.8027 200,145 c -9.39509,-21.08306 -8.86723,-38.55778 11,-49 10.20792,11.80845 16.30176,12.62277 39,49 l -2,-3 0,0 -1,0"
     id="path3941"
     inkscape:connector-curvature="0"
     sodipodi:nodetypes="cccccccc" />
  <path
     style="fill:none;stroke:#000000;stroke-width:4;stroke-linecap:round;stroke-linejoin:round;stroke-opacity:1;stroke-miterlimit:4;stroke-dasharray:16,8,4,8;stroke-dashoffset:0"
     d="m 257,138 c 3.25112,-15.54111 4.76458,-31.95104 13,-45 13.8291,1.269048 26.46599,7.90303 35,33 16.41217,8.92116 29.46156,21.2051 30,46 -20.39093,23.144 -33.48829,28.05406 -49,39 33.47682,17.05552 64.21398,29.29326 52,-34 l -1,0"
     id="path3943"
     inkscape:connector-curvature="0"
     sodipodi:nodetypes="ccccccc" />
  <path
     style="fill:none;stroke:#000000;stroke-width:4;stroke-linecap:round;stroke-linejoin:round;stroke-opacity:1;stroke-miterlimit:4;stroke-dasharray:16,8,4,8;stroke-dashoffset:0"
     d="M 270,89 C 264.96284,74.222294 249.25009,65.849947 231,59 214.92109,71.487464 211.46795,82.171245 214,92 l 0,0 -1,-2"
     id="path3945"
     inkscape:connector-curvature="0"
     sodipodi:nodetypes="ccccc" />
  <path
     style="fill:none;stroke:#000000;stroke-width:4;stroke-linecap:round;stroke-linejoin:round;stroke-opacity:1;stroke-miterlimit:4;stroke-dasharray:32,8,4,8;stroke-dashoffset:0"
     d="m 252,218 c -20.71674,-8.0415 -45.01752,-7.12287 -61,-27 -8.67993,-19.2914 -5.96536,-33.69944 4,-45 l 0,0 0,0"
     id="path3947"
     inkscape:connector-curvature="0"
     sodipodi:nodetypes="ccccc" />
  <path
     style="fill:none;stroke:#000000;stroke-width:4;stroke-linecap:round;stroke-linejoin:round;stroke-opacity:1;stroke-miterlimit:4;stroke-dasharray:32,8,4,8;stroke-dashoffset:0"
     d="m 186,194 c -1.68691,31.88605 12.23331,41.47622 29,47 15.05537,-1.01882 27.90701,-5.71053 35,-20"
     id="path3949"
     inkscape:connector-curvature="0"
     sodipodi:nodetypes="ccc" />
  <path
     style="fill:none;stroke:#000000;stroke-width:8;stroke-linecap:butt;stroke-linejoin:miter;stroke-miterlimit:4;stroke-opacity:1;stroke-dasharray:none"
     d="m 210,383 c -5.38881,-24.14873 -2.10537,-32.57811 -3.13968,-44.60433 C 204.45892,310.47401 182.90091,294.34945 173,292 c -7.31976,-1.20132 -12.99884,0.28347 -26,-11 L 122,265 C 94.817212,241.53406 88.325144,245.65575 76,242 c -16.502941,-6.83627 -30.165519,-10.83219 -23,6 -2.79394,24.89829 1.241834,32.05987 8.5,43 10.265724,11.32063 15.071963,18.14292 37.5,37 30.78651,21.00748 42.3127,25.50612 55,31 25.11714,6.62352 54.36798,22.47655 56,24 z"
     id="path6126"
     inkscape:connector-curvature="0"
     sodipodi:nodetypes="csccccccccc" />
  <path
     style="fill:none;stroke:#000000;stroke-width:8;stroke-linecap:round;stroke-linejoin:round;stroke-miterlimit:4;stroke-opacity:1;stroke-dasharray:none"
     d="m 144,279 c 14.66667,1.03515 32.33333,-1.38057 50,12 21.63368,3.86657 22.89867,6.83848 26,16 14.03833,23.2581 5.74304,33.83684 2,47 -0.5248,10.33333 -1.96087,20.66667 0,31 l 10,19 c -1.15532,7.35603 -12.90281,-10.47229 -24,-23"
     id="path6128"
     inkscape:connector-curvature="0"
     sodipodi:nodetypes="ccccccc" />
  <path
     style="fill:none;stroke:#000000;stroke-width:12;stroke-linecap:butt;stroke-linejoin:miter;stroke-miterlimit:4;stroke-opacity:1;stroke-dasharray:none"
     d="m 228,401 c 25.76793,40.11603 56.04097,75.97952 72,121 5.40703,16.86207 13.26315,13.60232 26,72 1.82922,53.46299 -8.79864,50.8122 -12,59 l 0,0"
     id="path6130"
     inkscape:connector-curvature="0"
     sodipodi:nodetypes="ccccc" />
  <path
     style="fill:none;stroke:#000000;stroke-width:4;stroke-linecap:round;stroke-linejoin:round;stroke-miterlimit:4;stroke-opacity:1;stroke-dasharray:16, 8, 4, 8;stroke-dashoffset:0"
     d="M 154,346 C 121.4008,327.55422 89.712381,307.59048 65,276 60.914134,256.08008 71.5755,257.12088 86,261 l 5,31"
     id="path3014"
     inkscape:connector-curvature="0"
     sodipodi:nodetypes="cccc" />
  <path
     style="fill:none;stroke:#000000;stroke-width:4;stroke-linecap:round;stroke-linejoin:round;stroke-miterlimit:4;stroke-opacity:1;stroke-dasharray:16, 8, 4, 8;stroke-dashoffset:0"
     d="m 90,268 c 13.98342,-3.63903 20.89557,-1.49262 27,8 4.8197,18.63939 8.47397,34.94795 8,43"
     id="path3016"
     inkscape:connector-curvature="0"
     sodipodi:nodetypes="ccc" />
  <path
     style="fill:none;stroke:#000000;stroke-width:4;stroke-linecap:round;stroke-linejoin:round;stroke-miterlimit:4;stroke-opacity:1;stroke-dasharray:16, 8, 4, 8;stroke-dashoffset:0"
     d="m 121,281 c 4.59937,-1.93428 15.74697,5.95379 31,20 5.06741,19.89013 6.92541,34.43124 4,41 l 0,-1 0,0"
     id="path3018"
     inkscape:connector-curvature="0"
     sodipodi:nodetypes="ccccc" />
  <path
     style="fill:none;stroke:#000000;stroke-width:4;stroke-linecap:round;stroke-linejoin:round;stroke-miterlimit:4;stroke-opacity:1;stroke-dasharray:16, 8, 4, 8;stroke-dashoffset:0"
     d="m 154,304 c 13.51759,-5.42994 22.47882,-0.22835 28,13 7.17734,20.07521 6.13906,33.57791 0,43"
     id="path3020"
     inkscape:connector-curvature="0"
     sodipodi:nodetypes="ccc" />
  <path
     style="fill:none;stroke:#000000;stroke-width:12;stroke-linecap:round;stroke-linejoin:round;stroke-miterlimit:4;stroke-opacity:1;stroke-dasharray:none"
     d="m 243.5,504 c 31.21052,20.64393 44.8721,24.26928 74.5,77 4.93063,63.00512 -1.72432,52.63488 -4,70"
     id="path3812"
     inkscape:connector-curvature="0"
     sodipodi:nodetypes="ccc" />
  <path
     style="fill:none;stroke:#000000;stroke-width:12;stroke-linecap:round;stroke-linejoin:round;stroke-miterlimit:4;stroke-opacity:1;stroke-dasharray:none"
     d="m 309,667 14,-48 c -36.73708,-89.9829 -114.35323,-91.73158 -158,-44 -11.70927,8.85815 -24.22161,17.55568 -23,29 l 0,0"
     id="path3814"
     inkscape:connector-curvature="0"
     sodipodi:nodetypes="ccccc" />
  <path
     style="fill:none;stroke:#000000;stroke-width:12;stroke-linecap:round;stroke-linejoin:round;stroke-miterlimit:4;stroke-opacity:1;stroke-dasharray:none"
     d="m 164,578 c 3.21362,10.19522 17.08526,6.12275 6,33 1.55274,8.63818 -9.63851,19.84037 -20,23 -6.73751,-6.43833 -14.37469,-18.31679 -8,-30 l 22.5,-16 4.5,17"
     id="path3816"
     inkscape:connector-curvature="0"
     sodipodi:nodetypes="cccccc" />
  <path
     style="fill:none;stroke:#000000;stroke-width:8;stroke-linecap:round;stroke-linejoin:round;stroke-miterlimit:4;stroke-opacity:1;stroke-dasharray:none"
     d="m 243.5,506.5 c -14.15936,-6.35278 -38.57533,-14.4096 -50.58807,-12.48255 -12.01274,1.92705 -27.12225,8.33799 -37.6687,15.92074 -10.54644,7.58275 -18.52574,11.34108 -28.29031,21.95165 C 117.19901,542.48883 120.57991,539.81976 107,560 c -1.96537,1.64264 -14.984358,29.3271 -15.339812,-6.02526 -0.09245,-9.1948 1.557581,-38.93421 2.670602,-47.43295 2.226043,-16.99748 10.78554,-32.9856 18.33151,-45.40203 7.54597,-12.41643 19.07842,-18.26118 33.25036,-24.97191 C 160.0846,429.45711 193.89604,421.88039 213,429"
     id="path3818"
     inkscape:connector-curvature="0"
     sodipodi:nodetypes="cssscssssc" />
  <path
     style="fill:none;stroke:#000000;stroke-width:8;stroke-linecap:round;stroke-linejoin:round;stroke-miterlimit:4;stroke-opacity:1;stroke-dasharray:none"
     d="m 250,507 c -8.14769,-8.18564 -19.1447,-25.52197 -22,-39 -2.83632,-7.83035 -2.35709,-16.97624 0,-30 6.76027,-18.84264 -11.33138,-10.1983 -25,4 -21.66219,22.923 -8.89471,11.1813 -25,24 -11.40896,6.10501 -22.99893,14.48366 -29,18 -21.86408,15.18049 -20.48195,25.11326 -28,34 l -10,15"
     id="path3820"
     inkscape:connector-curvature="0"
     sodipodi:nodetypes="cccccccc" />
  <path
     style="fill:none;stroke:#000000;stroke-width:4;stroke-linecap:round;stroke-linejoin:round;stroke-miterlimit:4;stroke-opacity:1;stroke-dasharray:16, 8, 4, 8;stroke-dashoffset:0"
     d="m 191,447 c -4.3761,-2.66667 -12.13583,-5.33333 -19,-8 -21.65608,1.40847 -30.3651,13.17458 -39,25 32.24884,-2.57424 27.12906,0.76612 29,3 l 0,0 0,0"
     id="path3822"
     inkscape:connector-curvature="0"
     sodipodi:nodetypes="cccccc" />
  <path
     style="fill:none;stroke:#000000;stroke-width:4;stroke-linecap:round;stroke-linejoin:round;stroke-miterlimit:4;stroke-opacity:1;stroke-dasharray:16, 8, 4, 8;stroke-dashoffset:0"
     d="m 132,467 c -17.54838,9.33333 -20.0609,23.66667 -23,33 10.6284,-4.96939 24.05616,-12.17826 22,-7"
     id="path3824"
     inkscape:connector-curvature="0"
     sodipodi:nodetypes="ccc" />
  <path
     style="fill:none;stroke:#000000;stroke-width:4;stroke-linecap:round;stroke-linejoin:round;stroke-miterlimit:4;stroke-opacity:1;stroke-dasharray:16, 8, 4, 8;stroke-dashoffset:0"
     d="m 222,486 c -13.41582,-7.32893 -13.8217,-21.21569 -15,-31"
     id="path3826"
     inkscape:connector-curvature="0"
     sodipodi:nodetypes="cc" />
  <path
     style="fill:none;stroke:#000000;stroke-width:4;stroke-linecap:round;stroke-linejoin:round;stroke-miterlimit:4;stroke-opacity:1;stroke-dasharray:16, 8, 4, 8;stroke-dashoffset:0"
     d="m 203,484 c -2.07745,-2.48064 -22.64256,-4.08936 -35,-4"
     id="path3828"
     inkscape:connector-curvature="0"
     sodipodi:nodetypes="cc" />
  <path
     style="fill:none;stroke:#000000;stroke-width:12;stroke-linecap:round;stroke-linejoin:round;stroke-miterlimit:4;stroke-opacity:1;stroke-dasharray:none"
     d="m 322,660 c 19.48289,-16.18378 42.99951,-38.33383 75,-42 93.22466,-10.36345 114.61191,15.71024 148,25"
     id="path3830"
     inkscape:connector-curvature="0"
     sodipodi:nodetypes="ccc" />
  <path
     style="fill:none;stroke:#000000;stroke-width:12;stroke-linecap:round;stroke-linejoin:round;stroke-miterlimit:4;stroke-opacity:1;stroke-dasharray:none"
     d="m 332,665 c 13.18036,-42.80181 -0.51822,-78.76467 30,-163 25.42974,-71.80913 104.24176,-136.30705 127.87006,-130.67767"
     id="path3832"
     inkscape:connector-curvature="0"
     sodipodi:nodetypes="ccc" />
  <path
     style="fill:none;stroke:#000000;stroke-width:12;stroke-linecap:round;stroke-linejoin:round;stroke-miterlimit:4;stroke-opacity:1;stroke-dasharray:none"
     d="M 318.41421,510.58579 C 327.46678,580.96329 345.19737,627.47257 332,616 l -6,44"
     id="path3834"
     inkscape:connector-curvature="0"
     sodipodi:nodetypes="ccc" />
  <path
     style="fill:none;stroke:#000000;stroke-width:8;stroke-linecap:round;stroke-linejoin:round;stroke-miterlimit:4;stroke-opacity:1;stroke-dasharray:none"
     d="m 548,642 c -3.63185,-20.63822 -17.54394,-36.03402 16,-47 23.26474,-2.01941 21.6976,1.28104 33,4 17.70511,-2.41545 32.82522,9.9497 43,15 22.98072,7.66667 36.4819,12.33333 41,20 29.52757,16.84252 24.25197,13.41732 32,23 7.8687,12.422 35.37135,44.66244 -1,62 -11.60135,1.06532 -8.73134,7.602 -20,9 -0.2603,2.54034 -15.27876,0.23997 -47,0 -30.75151,14.74842 -36.65371,-2.09731 -52,1 -36.85713,-0.82945 -62.18695,-9.84954 -71,-31 -18.41544,-27.52651 17.26722,-29.81746 26,-56 z"
     id="path3836"
     inkscape:connector-curvature="0"
     sodipodi:nodetypes="cccccccccccc" />
  <path
     style="fill:none;stroke:#000000;stroke-width:4;stroke-linecap:round;stroke-linejoin:round;stroke-miterlimit:4;stroke-opacity:1;stroke-dasharray:16, 8, 4, 8;stroke-dashoffset:0"
     d="m 557,648 c 74.52463,30.7942 109.52392,35.23817 154,46"
     id="path3838"
     inkscape:connector-curvature="0"
     sodipodi:nodetypes="cc" />
  <path
     style="fill:none;stroke:#000000;stroke-width:4;stroke-linecap:round;stroke-linejoin:round;stroke-miterlimit:4;stroke-opacity:1;stroke-dasharray:16, 8, 4, 8;stroke-dashoffset:0"
     d="m 566,645 c 4.54804,-14.07226 27.91987,-19.4315 53,-24 10.01846,2.80565 20.17348,5.40645 25,16 -16.61601,7.24828 -36.33738,10.54069 -43,15"
     id="path3840"
     inkscape:connector-curvature="0"
     sodipodi:nodetypes="cccc" />
  <path
     style="fill:none;stroke:#000000;stroke-width:4;stroke-linecap:round;stroke-linejoin:round;stroke-miterlimit:4;stroke-opacity:1;stroke-dasharray:16, 8, 4, 8;stroke-dashoffset:0"
     d="m 646,637 c 24.56661,2.55003 31.84574,13.7438 41,24 -14.39642,-2.15771 -22.88236,4.96077 -37,9"
     id="path3842"
     inkscape:connector-curvature="0"
     sodipodi:nodetypes="ccc" />
  <path
     style="fill:none;stroke:#000000;stroke-width:4;stroke-linecap:round;stroke-linejoin:round;stroke-miterlimit:4;stroke-opacity:1;stroke-dasharray:16, 8, 4, 8;stroke-dashoffset:0"
     d="m 689,664 c 17.68781,4.85821 22.32188,14.93792 27,25"
     id="path3844"
     inkscape:connector-curvature="0"
     sodipodi:nodetypes="cc" />
  <path
     style="fill:none;stroke:#000000;stroke-width:4;stroke-linecap:round;stroke-linejoin:round;stroke-miterlimit:4;stroke-opacity:1;stroke-dasharray:16, 8, 4, 8;stroke-dashoffset:0"
     d="m 562,663 c 6.04598,15.66667 9.27224,31.33333 28,47 22.49116,10.5827 37.21193,11.71447 44,4 l -36,-44"
     id="path3846"
     inkscape:connector-curvature="0"
     sodipodi:nodetypes="cccc" />
  <path
     style="fill:none;stroke:#000000;stroke-width:4;stroke-linecap:round;stroke-linejoin:round;stroke-miterlimit:4;stroke-opacity:1;stroke-dasharray:16, 8, 4, 8;stroke-dashoffset:0"
     d="m 641,715 c 16.13899,1.52091 27.52479,-0.52307 33,-7 l -30,-26"
     id="path3848"
     inkscape:connector-curvature="0"
     sodipodi:nodetypes="ccc" />
  <path
     style="fill:none;stroke:#000000;stroke-width:4;stroke-linecap:round;stroke-linejoin:round;stroke-miterlimit:4;stroke-opacity:1;stroke-dasharray:16, 8, 4, 8;stroke-dashoffset:0"
     d="m 681,710 c 18.43975,3.88513 21.21613,-4.76043 27,-11"
     id="path3850"
     inkscape:connector-curvature="0"
     sodipodi:nodetypes="cc" />
  <path
     style="fill:none;stroke:#000000;stroke-width:4;stroke-linecap:round;stroke-linejoin:round;stroke-miterlimit:4;stroke-opacity:1;stroke-dasharray:16, 8, 4, 8;stroke-dashoffset:0"
     d="m 555,660 c -5.26884,16.46022 -26.74978,34.54164 18,46 l 0,0 0,0 1,1"
     id="path3852"
     inkscape:connector-curvature="0"
     sodipodi:nodetypes="ccccc" />
  <path
     style="fill:none;stroke:#000000;stroke-width:4;stroke-linecap:round;stroke-linejoin:round;stroke-miterlimit:4;stroke-opacity:1;stroke-dasharray:16, 8, 4, 8;stroke-dashoffset:0"
     d="m 558,636 c -0.81569,-33.90327 23.36415,-23.15031 38,-21"
     id="path3854"
     inkscape:connector-curvature="0"
     sodipodi:nodetypes="cc" />
  <path
     style="fill:none;stroke:#000000;stroke-width:8;stroke-linecap:round;stroke-linejoin:round;stroke-miterlimit:4;stroke-opacity:1;stroke-dasharray:none"
     d="m 311,663 c -26.93775,39.01759 -49.51853,-5.66133 -86,34 -26.2365,8.08015 -25.53859,2.00909 -42,25 -18.65275,45.19481 -41.94244,25.47249 -63,37"
     id="path3856"
     inkscape:connector-curvature="0"
     sodipodi:nodetypes="cccc" />
  <path
     style="fill:none;stroke:#000000;stroke-width:8;stroke-linecap:round;stroke-linejoin:round;stroke-miterlimit:4;stroke-opacity:1;stroke-dasharray:none"
     d="m 320,666 c -14.71495,18.90343 -33.01901,30.62864 -43,59 -4.66667,22.39277 -9.33333,33.24943 -14,37 -11.96524,6.56714 -19.02513,14.7694 -23,24 -2.41614,5.0828 -3.20289,8.53623 -8,16"
     id="path3858"
     inkscape:connector-curvature="0"
     sodipodi:nodetypes="ccccc" />
  <path
     style="fill:none;stroke:#000000;stroke-width:8;stroke-linecap:round;stroke-linejoin:round;stroke-miterlimit:4;stroke-opacity:1;stroke-dasharray:none"
     d="m 196,796 c 0.81515,-6.53477 16.75577,-11.05021 21,-24 6.9387,-19.23381 3.50323,-26.40237 30,-56 15.97255,-12.74068 30.72793,-15.9244 51,-35 l 17,-16 0,0 -1,-1"
     id="path3860"
     inkscape:connector-curvature="0"
     sodipodi:nodetypes="ccccccc" />
  <path
     style="fill:none;stroke:#000000;stroke-width:8;stroke-linecap:round;stroke-linejoin:round;stroke-miterlimit:4;stroke-opacity:1;stroke-dasharray:none"
     d="m 303,674 c -44.8435,16.57189 -96.52858,32.58525 -106,70 -17.43229,28.49479 -28.63596,25.84647 -41,29 -21.75226,-2.13964 -20.72521,3.31382 -28,6"
     id="path3862"
     inkscape:connector-curvature="0"
     sodipodi:nodetypes="cccc" />
  <path
     style="fill:none;stroke:#000000;stroke-width:8;stroke-linecap:round;stroke-linejoin:round;stroke-miterlimit:4;stroke-opacity:1;stroke-dasharray:none"
     d="m 326,667 c -0.35606,26.51768 -8.65439,55.79824 -17,69 -12.49077,18.73326 -15.36436,33.38548 1,39 14.75038,9.86697 5.5623,25.78317 -7,32 l 0,0"
     id="path3864"
     inkscape:connector-curvature="0"
     sodipodi:nodetypes="ccccc" />
  <path
     style="fill:none;stroke:#000000;stroke-width:8;stroke-linecap:round;stroke-linejoin:round;stroke-miterlimit:4;stroke-opacity:1;stroke-dasharray:none"
     d="m 347,801 c -5.58135,-14.12728 3.11462,-20.85553 -15,-35 -10.9679,-10 -8.57032,-15 -7,-25 5.89596,-10.33333 13.93592,-53.66667 8,-64"
     id="path3866"
     inkscape:connector-curvature="0"
     sodipodi:nodetypes="cccc" />
  <path
     style="fill:none;stroke:#000000;stroke-width:8;stroke-linecap:round;stroke-linejoin:round;stroke-miterlimit:4;stroke-opacity:1;stroke-dasharray:none"
     d="m 331,667 c 29.99886,30.77621 44.30119,26.07712 53,39 20.82127,31.81663 42.77167,0.24727 53,42"
     id="path3868"
     inkscape:connector-curvature="0"
     sodipodi:nodetypes="ccc" />
  <path
     style="fill:none;stroke:#000000;stroke-width:8;stroke-linecap:round;stroke-linejoin:round;stroke-miterlimit:4;stroke-opacity:1;stroke-dasharray:none"
     d="m 333,667 c 10.65207,23.23007 30.1233,54.25904 55,68 12.97743,5.3559 29.58912,7.07755 30,25 -5.223,11.51955 -6.77576,18.14546 -4,19 l 0,0"
     id="path3870"
     inkscape:connector-curvature="0"
     sodipodi:nodetypes="ccccc" />
  <path
     style="fill:none;stroke:#000000;stroke-width:8;stroke-linecap:round;stroke-linejoin:round;stroke-miterlimit:4;stroke-opacity:1;stroke-dasharray:none"
     d="m 327,666 c 9.33608,19.43505 -7.48289,60.45627 34,70 10.99733,4.13214 22.03803,13.30394 14,25 9.88702,26.51181 8.77067,5.0381 18,38"
     id="path3872"
     inkscape:connector-curvature="0"
     sodipodi:nodetypes="cccc" />
  <path
     style="fill:none;stroke:#000000;stroke-width:8;stroke-linecap:round;stroke-linejoin:round;stroke-miterlimit:4;stroke-opacity:1;stroke-dasharray:none"
     d="m 283,785 c 2.14121,3.79148 -19.23558,-0.99862 15,-64 6.84781,-19.89318 9.33524,-37.9995 25,-54"
     id="path3874"
     inkscape:connector-curvature="0"
     sodipodi:nodetypes="ccc" />
  <path
     style="fill:none;stroke:#000000;stroke-width:8;stroke-linecap:round;stroke-linejoin:round;stroke-miterlimit:4;stroke-opacity:1;stroke-dasharray:none"
     d="m 296,682 c -32.56439,17.60519 -58.09779,25.55265 -69,42 l -12,13"
     id="path3878"
     inkscape:connector-curvature="0"
     sodipodi:nodetypes="ccc" />
  <path
     style="fill:none;stroke:#000000;stroke-width:8;stroke-linecap:round;stroke-linejoin:round;stroke-miterlimit:4;stroke-opacity:1;stroke-dasharray:none"
     d="m 253,747 c -4.38894,-18.95198 47.42602,-65.34089 65,-66"
     id="path3880"
     inkscape:connector-curvature="0"
     sodipodi:nodetypes="cc" />
  <path
     style="fill:none;stroke:#000000;stroke-width:8;stroke-linecap:round;stroke-linejoin:round;stroke-miterlimit:4;stroke-opacity:1;stroke-dasharray:none"
     d="m 313,756 c 10.52868,-25.23566 3.92554,-59.03723 5,-89"
     id="path3882"
     inkscape:connector-curvature="0"
     sodipodi:nodetypes="cc" />
  <path
     style="fill:none;stroke:#000000;stroke-width:8;stroke-linecap:round;stroke-linejoin:round;stroke-miterlimit:4;stroke-opacity:1;stroke-dasharray:none"
     d="m 358,723 c -10,1.90807 -20,-31.25311 -30,-54"
     id="path3884"
     inkscape:connector-curvature="0"
     sodipodi:nodetypes="cc" />
  <g
     style="fill:#4a3365;fill-opacity:0;fill-rule:evenodd"
     transform="matrix(0.93657599,-0.35046456,0.35046456,0.93657599,-137.27379,185.43768)"
     id="g4295">
    <path
       sodipodi:nodetypes="ccccccccccscccscccscsc"
       inkscape:connector-curvature="0"
       id="path4287"
       d="m 533,396 c -36.22609,0.79903 -62.77215,11.8692 -75,34 -8.98835,14.4425 -7.98834,27.22028 -1,39 5.70428,7.19414 10.3938,12.60445 29,17 31.97918,4.3812 44.34642,-20.40685 58,-37 -9.26536,26.66667 -20.53558,50.46619 -6.5287,77.13286 11.11555,16.63725 28.60237,20.84964 47.0287,18.86714 43.65527,1.1137 35.61517,-31.76542 36.61782,-20.88819 C 622.32078,488.58016 614.46755,478.97488 605,455 c 17.25002,13.39582 29.08132,30.85568 56,37 31.151,-0.4835 40.38648,-9.66588 44.11149,-21.86766 C 708.69965,458.37884 709.33151,438.64308 688,421 c -14.86383,-10.66667 -36.217,-14.33333 -75,-25 16.39624,-6.13149 34.36312,-39.13253 36,-57 3.62503,-14.31289 6.46367,-39.077 -11.25699,-45.3252 C 625.18845,289.24814 610.69132,282.10157 594,306 c -13.4329,24.66667 -13.79528,63.33333 -15,88 1.46741,-23.91694 4.4001,-44.37896 -8.74029,-81.17223 -6.85455,-16.16178 -21.18155,-25.93847 -34.79234,-24.83142 -13.60974,1.10697 -36.37325,27.26065 -34.57617,48.39347 0.70479,16.04663 10.90603,34.26073 16.65105,44.55103 5.74502,10.2903 8.14263,8.26699 15.45775,15.05915 z"
       style="fill:#4a3365;fill-opacity:0;fill-rule:evenodd;stroke:#000000;stroke-width:8;stroke-linecap:round;stroke-linejoin:round;stroke-miterlimit:4;stroke-opacity:1;stroke-dasharray:none" />
    <path
       sodipodi:nodetypes="cccccccccccccccccccc"
       inkscape:connector-curvature="0"
       id="path4289"
       d="m 545,400 27,1 c -8.14855,5.48189 -23.4396,11.10626 -29,14 l 28,-7 c -10.83022,11.16356 -23.45919,20.12586 -29,26 12.94556,-10.75167 22.37486,-16.22896 30,-19 -8.44121,10.88727 -14.8844,20.77553 -18,29 l 21,-27 c -7.52306,22.37946 -7.29105,29.24877 -7,36 l 12,-38 c 3.79462,9.02608 10.28867,13.32816 4,40 -1.05323,-11.22688 -2.5049,-21.65686 -1,-38 l 16,29 c -5.84555,-15.86998 -8.70884,-22.79319 -12,-31 3.82837,5.33003 13.20035,14.35579 25,25 l -24,-32 34,19 c -11.92317,-8.33333 -23.32793,-16.66667 -30,-25 l 22,5 -24,-7"
       style="fill:#4a3365;fill-opacity:0;fill-rule:evenodd;stroke:#000000;stroke-width:4;stroke-linecap:round;stroke-linejoin:round;stroke-miterlimit:4;stroke-opacity:1;stroke-dasharray:none" />
  </g>
  <text
     sodipodi:linespacing="125%"
     id="text4299"
     y="358"
     x="880"
     style="font-size:300px;font-style:normal;font-variant:normal;font-weight:bold;font-stretch:normal;text-align:start;line-height:125%;letter-spacing:0px;word-spacing:0px;writing-mode:lr-tb;text-anchor:start;fill:url(#linearGradient5812);fill-opacity:1;fill-rule:evenodd;stroke:none;font-family:Georgia;-inkscape-font-specification:Georgia Bold"
     xml:space="preserve"><tspan
       style="fill:url(#linearGradient5812);fill-opacity:1;fill-rule:evenodd"
       y="358"
       x="880"
       id="tspan4301"
       sodipodi:role="line">UW-W Biology</tspan><tspan
       style="fill:url(#linearGradient5812);fill-opacity:1;fill-rule:evenodd"
       id="tspan4303"
       y="733"
       x="880"
       sodipodi:role="line">Greenhouse</tspan></text>
  <path
     style="fill:none;stroke:#4a3365;stroke-width:12;stroke-linecap:round;stroke-linejoin:round;stroke-miterlimit:4;stroke-opacity:1;stroke-dasharray:none"
     d="m 806.10173,117.43737 0,644.88139"
     id="path5886"
     inkscape:connector-curvature="0"
     sodipodi:nodetypes="cc" />
</svg>
