<?xml version="1.0" encoding="UTF-8" standalone="no"?>
<!-- Created with Inkscape (http://www.inkscape.org/) -->

<svg
   id="svg4190"
   version="1.1"
   inkscape:version="1.1 (c4e8f9e, 2021-05-24)"
   width="111.30683"
   height="111.30687"
   viewBox="0 0 111.30683 111.30687"
   sodipodi:docname="icon-Nphd.svg"
   xmlns:inkscape="http://www.inkscape.org/namespaces/inkscape"
   xmlns:sodipodi="http://sodipodi.sourceforge.net/DTD/sodipodi-0.dtd"
   xmlns="http://www.w3.org/2000/svg"
   xmlns:svg="http://www.w3.org/2000/svg"
   xmlns:rdf="http://www.w3.org/1999/02/22-rdf-syntax-ns#"
   xmlns:cc="http://creativecommons.org/ns#"
   xmlns:dc="http://purl.org/dc/elements/1.1/">
  <metadata
     id="metadata4196">
    <rdf:RDF>
      <cc:Work
         rdf:about="">
        <dc:format>image/svg+xml</dc:format>
        <dc:type
           rdf:resource="http://purl.org/dc/dcmitype/StillImage" />
      </cc:Work>
    </rdf:RDF>
  </metadata>
  <defs
     id="defs4194" />
  <sodipodi:namedview
     pagecolor="#ffffff"
     bordercolor="#666666"
     borderopacity="1"
     objecttolerance="10"
     gridtolerance="10"
     guidetolerance="10"
     inkscape:pageopacity="0"
     inkscape:pageshadow="2"
     inkscape:window-width="1522"
     inkscape:window-height="890"
     id="namedview4192"
     showgrid="false"
     inkscape:zoom="5.3833875"
     inkscape:cx="59.163491"
     inkscape:cy="52.56913"
     inkscape:window-x="0"
     inkscape:window-y="25"
     inkscape:window-maximized="0"
     inkscape:current-layer="svg4190"
     fit-margin-top="0"
     fit-margin-left="0"
     fit-margin-right="0"
     fit-margin-bottom="0"
     inkscape:pagecheckerboard="0" />
  <path
     style="color:#000000;clip-rule:nonzero;display:inline;overflow:visible;visibility:visible;opacity:1;isolation:auto;mix-blend-mode:normal;color-interpolation:sRGB;color-interpolation-filters:linearRGB;solid-color:#000000;solid-opacity:1;fill:#ffffff;fill-opacity:1;fill-rule:nonzero;stroke:#e6e6e6;stroke-width:2;stroke-linecap:butt;stroke-linejoin:miter;stroke-miterlimit:4;stroke-dasharray:none;stroke-dashoffset:0;stroke-opacity:1;color-rendering:auto;image-rendering:auto;shape-rendering:auto;text-rendering:auto;enable-background:accumulate"
     id="path4200"
     sodipodi:type="arc"
     sodipodi:cx="55.653435"
     sodipodi:cy="55.653454"
     sodipodi:rx="54.64151"
     sodipodi:ry="54.64151"
     sodipodi:start="6.0246364"
     sodipodi:end="6.0213859"
     sodipodi:open="true"
     d="M 108.47877,41.682824 A 54.64151,54.64151 0 0 1 69.666987,108.46742 54.64151,54.64151 0 0 1 2.8508743,69.70992 54.64151,54.64151 0 0 1 41.554065,2.8623335 54.64151,54.64151 0 0 1 108.43308,41.511189" />
  <path
     d="M 97.756701,44.518463 A 43.550816,43.550816 0 0 1 66.822621,97.747658 43.550816,43.550816 0 0 1 13.568306,66.856843 43.550816,43.550816 0 0 1 44.415834,13.577443 43.550816,43.550816 0 0 1 97.720284,44.381665"
     sodipodi:open="true"
     sodipodi:end="6.0213859"
     sodipodi:start="6.0246364"
     sodipodi:ry="43.550816"
     sodipodi:rx="43.550816"
     sodipodi:cy="55.653446"
     sodipodi:cx="55.653427"
     sodipodi:type="arc"
     id="path4202"
     style="color:#000000;clip-rule:nonzero;display:inline;overflow:visible;visibility:visible;opacity:1;isolation:auto;mix-blend-mode:normal;color-interpolation:sRGB;color-interpolation-filters:linearRGB;solid-color:#000000;solid-opacity:1;fill:#87aade;fill-opacity:1;fill-rule:nonzero;stroke:#87aade;stroke-width:1.59405613;stroke-linecap:butt;stroke-linejoin:miter;stroke-miterlimit:4;stroke-dasharray:none;stroke-dashoffset:0;stroke-opacity:1;color-rendering:auto;image-rendering:auto;shape-rendering:auto;text-rendering:auto;enable-background:accumulate" />
  <g
     id="g4229"
     transform="translate(-3.1578629,-1.8575664)">
    <path
       sodipodi:nodetypes="ccccc"
       inkscape:connector-curvature="0"
       id="path4223"
       d="M 63.047896,60.868553 C 42.145869,60.154049 42.910387,48.676332 54.116111,41.166086 66.67437,32.547506 87.085283,39.480415 89.055152,45.369279 94.634171,52.307785 92.975257,75.192169 74.606677,80.57102 55.567313,84.543323 55.443544,69.276832 63.047896,60.868553 Z"
       style="fill:none;fill-rule:evenodd;stroke:#ffffff;stroke-width:3;stroke-linecap:butt;stroke-linejoin:round;stroke-miterlimit:4;stroke-dasharray:none;stroke-opacity:1" />
    <path
       sodipodi:nodetypes="ccccccccccc"
       inkscape:connector-curvature="0"
       id="path4225"
       d="M 29.727858,41.18249 C 27.767398,45.817923 31.177983,47.384188 33.931051,49.326177 29.035552,48.320277 26.671733,50.352393 25.261965,53.52937 28.41436,57.728238 30.515957,54.847279 33.668352,54.580167 29.148847,58.010948 31.763906,61.028455 33.405652,63.774653 39.267235,62.764951 40.304776,59.343228 39.185042,54.842867 42.24987,57.149561 45.314699,57.758829 48.379527,53.792069 46.570174,50.434997 47.393018,46.810025 40.23584,48.800778 43.642461,45.474309 42.610543,41.980234 40.498541,39.343593 37.871334,40.642321 34.790108,41.431349 36.295347,46.173781 35.045341,42.994006 32.356474,40.91574 29.727858,41.18249 Z"
       style="fill:#87aade;fill-opacity:1;fill-rule:evenodd;stroke:#ffffff;stroke-width:3;stroke-linecap:butt;stroke-linejoin:round;stroke-miterlimit:4;stroke-dasharray:none;stroke-opacity:1" />
    <path
       sodipodi:nodetypes="cc"
       inkscape:connector-curvature="0"
       id="path4227"
       d="M 40.145696,55.246251 C 41.452597,63.717087 49.253521,67.871062 51.894764,67.820757"
       style="fill:none;fill-rule:evenodd;stroke:#ffffff;stroke-width:3;stroke-linecap:butt;stroke-linejoin:miter;stroke-miterlimit:4;stroke-dasharray:none;stroke-opacity:1" />
  </g>
  <path
     style="fill:none;fill-rule:evenodd;stroke:#ffffff;stroke-width:3;stroke-linecap:butt;stroke-linejoin:miter;stroke-miterlimit:4;stroke-dasharray:none;stroke-opacity:1"
     d="M 28.420766,91.802422 C 32.407368,81.269715 37.367942,70.855065 57.398803,62.267116"
     id="path4253"
     inkscape:connector-curvature="0"
     sodipodi:nodetypes="cc" />
</svg>
