<?xml version="1.0" encoding="UTF-8" standalone="no"?>
<!-- Created with Inkscape (http://www.inkscape.org/) -->

<svg
   xmlns:dc="http://purl.org/dc/elements/1.1/"
   xmlns:cc="http://creativecommons.org/ns#"
   xmlns:rdf="http://www.w3.org/1999/02/22-rdf-syntax-ns#"
   xmlns:svg="http://www.w3.org/2000/svg"
   xmlns="http://www.w3.org/2000/svg"
   xmlns:sodipodi="http://sodipodi.sourceforge.net/DTD/sodipodi-0.dtd"
   xmlns:inkscape="http://www.inkscape.org/namespaces/inkscape"
   id="svg4190"
   version="1.1"
   inkscape:version="0.91 r13725"
   width="111.30683"
   height="111.30687"
   viewBox="0 0 111.30683 111.30687"
   sodipodi:docname="icon-aquatic.svg">
  <metadata
     id="metadata4196">
    <rdf:RDF>
      <cc:Work
         rdf:about="">
        <dc:format>image/svg+xml</dc:format>
        <dc:type
           rdf:resource="http://purl.org/dc/dcmitype/StillImage" />
        <dc:title></dc:title>
      </cc:Work>
    </rdf:RDF>
  </metadata>
  <defs
     id="defs4194" />
  <sodipodi:namedview
     pagecolor="#ffffff"
     bordercolor="#666666"
     borderopacity="1"
     objecttolerance="10"
     gridtolerance="10"
     guidetolerance="10"
     inkscape:pageopacity="0"
     inkscape:pageshadow="2"
     inkscape:window-width="1258"
     inkscape:window-height="731"
     id="namedview4192"
     showgrid="false"
     inkscape:zoom="5.3833875"
     inkscape:cx="59.238752"
     inkscape:cy="52.589985"
     inkscape:window-x="0"
     inkscape:window-y="1"
     inkscape:window-maximized="0"
     inkscape:current-layer="svg4190"
     fit-margin-top="0"
     fit-margin-left="0"
     fit-margin-right="0"
     fit-margin-bottom="0" />
  <path
     style="color:#000000;clip-rule:nonzero;display:inline;overflow:visible;visibility:visible;opacity:1;isolation:auto;mix-blend-mode:normal;color-interpolation:sRGB;color-interpolation-filters:linearRGB;solid-color:#000000;solid-opacity:1;fill:#ffffff;fill-opacity:1;fill-rule:nonzero;stroke:#e6e6e6;stroke-width:2;stroke-linecap:butt;stroke-linejoin:miter;stroke-miterlimit:4;stroke-dasharray:none;stroke-dashoffset:0;stroke-opacity:1;color-rendering:auto;image-rendering:auto;shape-rendering:auto;text-rendering:auto;enable-background:accumulate"
     id="path4200"
     sodipodi:type="arc"
     sodipodi:cx="55.653435"
     sodipodi:cy="55.653454"
     sodipodi:rx="54.64151"
     sodipodi:ry="54.64151"
     sodipodi:start="6.0246364"
     sodipodi:end="6.0213859"
     sodipodi:open="true"
     d="M 108.47877,41.682824 A 54.64151,54.64151 0 0 1 69.666987,108.46742 54.64151,54.64151 0 0 1 2.8508743,69.70992 54.64151,54.64151 0 0 1 41.554065,2.8623335 54.64151,54.64151 0 0 1 108.43308,41.511189" />
  <path
     d="M 97.756701,44.518463 A 43.550816,43.550816 0 0 1 66.822621,97.747658 43.550816,43.550816 0 0 1 13.568306,66.856843 43.550816,43.550816 0 0 1 44.415834,13.577443 43.550816,43.550816 0 0 1 97.720284,44.381665"
     sodipodi:open="true"
     sodipodi:end="6.0213859"
     sodipodi:start="6.0246364"
     sodipodi:ry="43.550816"
     sodipodi:rx="43.550816"
     sodipodi:cy="55.653446"
     sodipodi:cx="55.653427"
     sodipodi:type="arc"
     id="path4202"
     style="color:#000000;clip-rule:nonzero;display:inline;overflow:visible;visibility:visible;opacity:1;isolation:auto;mix-blend-mode:normal;color-interpolation:sRGB;color-interpolation-filters:linearRGB;solid-color:#000000;solid-opacity:1;fill:#87aade;fill-opacity:1;fill-rule:nonzero;stroke:#87aade;stroke-width:1.59405613;stroke-linecap:butt;stroke-linejoin:miter;stroke-miterlimit:4;stroke-dasharray:none;stroke-dashoffset:0;stroke-opacity:1;color-rendering:auto;image-rendering:auto;shape-rendering:auto;text-rendering:auto;enable-background:accumulate" />
  <path
     style="fill:none;fill-rule:evenodd;stroke:#ffffff;stroke-width:3;stroke-linecap:butt;stroke-linejoin:round;stroke-miterlimit:4;stroke-dasharray:none;stroke-opacity:1"
     d="M 12.631452,30.874243 C 17.645576,28.537894 24.651916,26.86724 29.721063,30.874243 37.010515,35.016821 42.612742,32.410503 48.482484,30.874243 57.358132,26.883104 61.568109,29.11286 66.129366,30.874243 71.00697,33.860746 76.61725,34.795756 83.962003,30.874243 89.500703,27.842698 94.706567,28.472353 99.751318,30.874243"
     id="path4299"
     inkscape:connector-curvature="0"
     sodipodi:nodetypes="cccccc" />
  <path
     style="fill:none;fill-rule:evenodd;stroke:#ffffff;stroke-width:3;stroke-linecap:round;stroke-linejoin:miter;stroke-miterlimit:4;stroke-dasharray:none;stroke-opacity:1"
     d="M 35.851032,95.331798 C 34.833804,81.755069 12.685223,68.114229 22.290798,45.363261"
     id="path4301"
     inkscape:connector-curvature="0"
     sodipodi:nodetypes="cc" />
  <path
     sodipodi:nodetypes="csc"
     inkscape:connector-curvature="0"
     id="path4303"
     d="M 36.036789,93.845745 C 36.842466,86.911348 36.751819,74.091996 37.984793,66.266131 39.352148,57.587334 45.077567,49.03538 43.467055,44.062965"
     style="fill:none;fill-rule:evenodd;stroke:#ffffff;stroke-width:3;stroke-linecap:round;stroke-linejoin:miter;stroke-miterlimit:4;stroke-dasharray:none;stroke-opacity:1" />
  <path
     style="fill:none;fill-rule:evenodd;stroke:#ffffff;stroke-width:3;stroke-linecap:round;stroke-linejoin:miter;stroke-miterlimit:4;stroke-dasharray:none;stroke-opacity:1"
     d="M 35.938044,95.146041 C 26.722323,63.808378 34.086309,64.900342 32.222911,38.676022"
     id="path4305"
     inkscape:connector-curvature="0"
     sodipodi:nodetypes="cc" />
  <path
     sodipodi:nodetypes="cc"
     inkscape:connector-curvature="0"
     id="path4307"
     d="M 37.437237,96.446338 C 38.454465,82.869609 58.188211,60.498207 48.582636,37.747239"
     style="fill:none;fill-rule:evenodd;stroke:#ffffff;stroke-width:3;stroke-linecap:round;stroke-linejoin:miter;stroke-miterlimit:4;stroke-dasharray:none;stroke-opacity:1" />
  <path
     style="fill:#ffffff;fill-rule:evenodd;stroke:#ffffff;stroke-width:3;stroke-linecap:round;stroke-linejoin:round;stroke-miterlimit:4;stroke-dasharray:none;stroke-opacity:1"
     d="M 37.894355,95.517555 C 42.120669,93.720903 47.722641,86.6735 50.154294,81.028537 49.602886,83.802017 51.293464,84.613759 47.182187,90.502125 43.969117,92.004344 43.827496,91.335092 43.281298,91.059396"
     id="path4311"
     inkscape:connector-curvature="0"
     sodipodi:nodetypes="cccc" />
  <path
     style="color:#000000;clip-rule:nonzero;display:inline;overflow:visible;visibility:visible;opacity:1;isolation:auto;mix-blend-mode:normal;color-interpolation:sRGB;color-interpolation-filters:linearRGB;solid-color:#000000;solid-opacity:1;fill:#ffffff;fill-opacity:1;fill-rule:nonzero;stroke:#ffffff;stroke-width:3;stroke-linecap:round;stroke-linejoin:round;stroke-miterlimit:4;stroke-dasharray:none;stroke-dashoffset:0;stroke-opacity:1;color-rendering:auto;image-rendering:auto;shape-rendering:auto;text-rendering:auto;enable-background:accumulate"
     id="path4313"
     sodipodi:type="arc"
     sodipodi:cx="57.956074"
     sodipodi:cy="68.397087"
     sodipodi:rx="0.37151328"
     sodipodi:ry="0.37151328"
     sodipodi:start="6.0246322"
     sodipodi:end="6.0213859"
     sodipodi:open="true"
     d="M 58.315238,68.302098 A 0.37151328,0.37151328 0 0 1 58.051354,68.756174 0.37151328,0.37151328 0 0 1 57.597064,68.492659 0.37151328,0.37151328 0 0 1 57.86021,68.038155 0.37151328,0.37151328 0 0 1 58.314928,68.300932" />
  <path
     d="M 67.788829,74.617825 A 0.37151328,0.37151328 0 0 1 67.524945,75.071902 0.37151328,0.37151328 0 0 1 67.070655,74.808386 0.37151328,0.37151328 0 0 1 67.333801,74.353882 0.37151328,0.37151328 0 0 1 67.788519,74.61666"
     sodipodi:open="true"
     sodipodi:end="6.0213859"
     sodipodi:start="6.0246322"
     sodipodi:ry="0.37151328"
     sodipodi:rx="0.37151328"
     sodipodi:cy="74.712814"
     sodipodi:cx="67.429665"
     sodipodi:type="arc"
     id="path4315"
     style="color:#000000;clip-rule:nonzero;display:inline;overflow:visible;visibility:visible;opacity:1;isolation:auto;mix-blend-mode:normal;color-interpolation:sRGB;color-interpolation-filters:linearRGB;solid-color:#000000;solid-opacity:1;fill:#ffffff;fill-opacity:1;fill-rule:nonzero;stroke:#ffffff;stroke-width:3;stroke-linecap:round;stroke-linejoin:round;stroke-miterlimit:4;stroke-dasharray:none;stroke-dashoffset:0;stroke-opacity:1;color-rendering:auto;image-rendering:auto;shape-rendering:auto;text-rendering:auto;enable-background:accumulate" />
  <path
     style="color:#000000;clip-rule:nonzero;display:inline;overflow:visible;visibility:visible;opacity:1;isolation:auto;mix-blend-mode:normal;color-interpolation:sRGB;color-interpolation-filters:linearRGB;solid-color:#000000;solid-opacity:1;fill:#ffffff;fill-opacity:1;fill-rule:nonzero;stroke:#ffffff;stroke-width:3;stroke-linecap:round;stroke-linejoin:round;stroke-miterlimit:4;stroke-dasharray:none;stroke-dashoffset:0;stroke-opacity:1;color-rendering:auto;image-rendering:auto;shape-rendering:auto;text-rendering:auto;enable-background:accumulate"
     id="path4317"
     sodipodi:type="arc"
     sodipodi:cx="65.200584"
     sodipodi:cy="56.322906"
     sodipodi:rx="0.37151328"
     sodipodi:ry="0.37151328"
     sodipodi:start="6.0246322"
     sodipodi:end="6.0213859"
     sodipodi:open="true"
     d="M 65.559749,56.227917 A 0.37151328,0.37151328 0 0 1 65.295865,56.681994 0.37151328,0.37151328 0 0 1 64.841575,56.418479 0.37151328,0.37151328 0 0 1 65.104721,55.963974 0.37151328,0.37151328 0 0 1 65.559439,56.226752" />
  <path
     d="M 75.962123,60.686078 A 0.37151328,0.37151328 0 0 1 75.698239,61.140154 0.37151328,0.37151328 0 0 1 75.243949,60.876639 0.37151328,0.37151328 0 0 1 75.507095,60.422135 0.37151328,0.37151328 0 0 1 75.961813,60.684912"
     sodipodi:open="true"
     sodipodi:end="6.0213859"
     sodipodi:start="6.0246322"
     sodipodi:ry="0.37151328"
     sodipodi:rx="0.37151328"
     sodipodi:cy="60.781067"
     sodipodi:cx="75.602959"
     sodipodi:type="arc"
     id="path4319"
     style="color:#000000;clip-rule:nonzero;display:inline;overflow:visible;visibility:visible;opacity:1;isolation:auto;mix-blend-mode:normal;color-interpolation:sRGB;color-interpolation-filters:linearRGB;solid-color:#000000;solid-opacity:1;fill:#ffffff;fill-opacity:1;fill-rule:nonzero;stroke:#ffffff;stroke-width:3;stroke-linecap:round;stroke-linejoin:round;stroke-miterlimit:4;stroke-dasharray:none;stroke-dashoffset:0;stroke-opacity:1;color-rendering:auto;image-rendering:auto;shape-rendering:auto;text-rendering:auto;enable-background:accumulate" />
  <path
     style="color:#000000;clip-rule:nonzero;display:inline;overflow:visible;visibility:visible;opacity:1;isolation:auto;mix-blend-mode:normal;color-interpolation:sRGB;color-interpolation-filters:linearRGB;solid-color:#000000;solid-opacity:1;fill:#ffffff;fill-opacity:1;fill-rule:nonzero;stroke:#ffffff;stroke-width:3;stroke-linecap:round;stroke-linejoin:round;stroke-miterlimit:4;stroke-dasharray:none;stroke-dashoffset:0;stroke-opacity:1;color-rendering:auto;image-rendering:auto;shape-rendering:auto;text-rendering:auto;enable-background:accumulate"
     id="path4321"
     sodipodi:type="arc"
     sodipodi:cx="58.884861"
     sodipodi:cy="79.542488"
     sodipodi:rx="0.37151328"
     sodipodi:ry="0.37151328"
     sodipodi:start="6.0246322"
     sodipodi:end="6.0213859"
     sodipodi:open="true"
     d="M 59.244026,79.447499 A 0.37151328,0.37151328 0 0 1 58.980142,79.901575 0.37151328,0.37151328 0 0 1 58.525851,79.63806 0.37151328,0.37151328 0 0 1 58.788998,79.183556 0.37151328,0.37151328 0 0 1 59.243715,79.446333" />
  <path
     d="M 60.172809,45.63979 A 0.37151328,0.37151328 0 0 1 59.908925,46.093867 0.37151328,0.37151328 0 0 1 59.454635,45.830351 0.37151328,0.37151328 0 0 1 59.717781,45.375847 0.37151328,0.37151328 0 0 1 60.172499,45.638625"
     sodipodi:open="true"
     sodipodi:end="6.0213859"
     sodipodi:start="6.0246322"
     sodipodi:ry="0.37151328"
     sodipodi:rx="0.37151328"
     sodipodi:cy="45.734779"
     sodipodi:cx="59.813644"
     sodipodi:type="arc"
     id="path4323"
     style="color:#000000;clip-rule:nonzero;display:inline;overflow:visible;visibility:visible;opacity:1;isolation:auto;mix-blend-mode:normal;color-interpolation:sRGB;color-interpolation-filters:linearRGB;solid-color:#000000;solid-opacity:1;fill:#ffffff;fill-opacity:1;fill-rule:nonzero;stroke:#ffffff;stroke-width:3;stroke-linecap:round;stroke-linejoin:round;stroke-miterlimit:4;stroke-dasharray:none;stroke-dashoffset:0;stroke-opacity:1;color-rendering:auto;image-rendering:auto;shape-rendering:auto;text-rendering:auto;enable-background:accumulate" />
  <path
     style="color:#000000;clip-rule:nonzero;display:inline;overflow:visible;visibility:visible;opacity:1;isolation:auto;mix-blend-mode:normal;color-interpolation:sRGB;color-interpolation-filters:linearRGB;solid-color:#000000;solid-opacity:1;fill:#ffffff;fill-opacity:1;fill-rule:nonzero;stroke:#ffffff;stroke-width:3;stroke-linecap:round;stroke-linejoin:round;stroke-miterlimit:4;stroke-dasharray:none;stroke-dashoffset:0;stroke-opacity:1;color-rendering:auto;image-rendering:auto;shape-rendering:auto;text-rendering:auto;enable-background:accumulate"
     id="path4325"
     sodipodi:type="arc"
     sodipodi:cx="77.460526"
     sodipodi:cy="48.335373"
     sodipodi:rx="0.37151328"
     sodipodi:ry="0.37151328"
     sodipodi:start="6.0246322"
     sodipodi:end="6.0213859"
     sodipodi:open="true"
     d="M 77.81969,48.240384 A 0.37151328,0.37151328 0 0 1 77.555806,48.69446 0.37151328,0.37151328 0 0 1 77.101516,48.430945 0.37151328,0.37151328 0 0 1 77.364662,47.976441 0.37151328,0.37151328 0 0 1 77.81938,48.239218" />
  <path
     d="M 85.064197,67.373318 A 0.37151328,0.37151328 0 0 1 84.800313,67.827395 0.37151328,0.37151328 0 0 1 84.346022,67.56388 0.37151328,0.37151328 0 0 1 84.609169,67.109375 0.37151328,0.37151328 0 0 1 85.063887,67.372153"
     sodipodi:open="true"
     sodipodi:end="6.0213859"
     sodipodi:start="6.0246322"
     sodipodi:ry="0.37151328"
     sodipodi:rx="0.37151328"
     sodipodi:cy="67.468307"
     sodipodi:cx="84.705032"
     sodipodi:type="arc"
     id="path4327"
     style="color:#000000;clip-rule:nonzero;display:inline;overflow:visible;visibility:visible;opacity:1;isolation:auto;mix-blend-mode:normal;color-interpolation:sRGB;color-interpolation-filters:linearRGB;solid-color:#000000;solid-opacity:1;fill:#ffffff;fill-opacity:1;fill-rule:nonzero;stroke:#ffffff;stroke-width:3;stroke-linecap:round;stroke-linejoin:round;stroke-miterlimit:4;stroke-dasharray:none;stroke-dashoffset:0;stroke-opacity:1;color-rendering:auto;image-rendering:auto;shape-rendering:auto;text-rendering:auto;enable-background:accumulate" />
  <path
     style="color:#000000;clip-rule:nonzero;display:inline;overflow:visible;visibility:visible;opacity:1;isolation:auto;mix-blend-mode:normal;color-interpolation:sRGB;color-interpolation-filters:linearRGB;solid-color:#000000;solid-opacity:1;fill:#ffffff;fill-opacity:1;fill-rule:nonzero;stroke:#ffffff;stroke-width:3;stroke-linecap:round;stroke-linejoin:round;stroke-miterlimit:4;stroke-dasharray:none;stroke-dashoffset:0;stroke-opacity:1;color-rendering:auto;image-rendering:auto;shape-rendering:auto;text-rendering:auto;enable-background:accumulate"
     id="path4329"
     sodipodi:type="arc"
     sodipodi:cx="88.605919"
     sodipodi:cy="53.908073"
     sodipodi:rx="0.37151328"
     sodipodi:ry="0.37151328"
     sodipodi:start="6.0246322"
     sodipodi:end="6.0213859"
     sodipodi:open="true"
     d="M 88.965083,53.813084 A 0.37151328,0.37151328 0 0 1 88.7012,54.267161 0.37151328,0.37151328 0 0 1 88.246909,54.003646 0.37151328,0.37151328 0 0 1 88.510055,53.549141 0.37151328,0.37151328 0 0 1 88.964773,53.811919" />
  <path
     d="M 90.079624,41.181634 A 0.37151328,0.37151328 0 0 1 89.81574,41.63571 0.37151328,0.37151328 0 0 1 89.361449,41.372195 0.37151328,0.37151328 0 0 1 89.624596,40.917691 0.37151328,0.37151328 0 0 1 90.079313,41.180468"
     sodipodi:open="true"
     sodipodi:end="6.0213859"
     sodipodi:start="6.0246322"
     sodipodi:ry="0.37151328"
     sodipodi:rx="0.37151328"
     sodipodi:cy="41.276623"
     sodipodi:cx="89.720459"
     sodipodi:type="arc"
     id="path4331"
     style="color:#000000;clip-rule:nonzero;display:inline;overflow:visible;visibility:visible;opacity:1;isolation:auto;mix-blend-mode:normal;color-interpolation:sRGB;color-interpolation-filters:linearRGB;solid-color:#000000;solid-opacity:1;fill:#ffffff;fill-opacity:1;fill-rule:nonzero;stroke:#ffffff;stroke-width:3;stroke-linecap:round;stroke-linejoin:round;stroke-miterlimit:4;stroke-dasharray:none;stroke-dashoffset:0;stroke-opacity:1;color-rendering:auto;image-rendering:auto;shape-rendering:auto;text-rendering:auto;enable-background:accumulate" />
</svg>
