<?xml version="1.0" encoding="UTF-8" standalone="no"?>
<svg
   version="1.1"
   id="svg851"
   xml:space="preserve"
   width="92.366501"
   height="45.760422"
   viewBox="0 0 92.3665 45.760421"
   sodipodi:docname="phytid-logo.svg"
   inkscape:version="1.1 (c4e8f9e, 2021-05-24)"
   xmlns:inkscape="http://www.inkscape.org/namespaces/inkscape"
   xmlns:sodipodi="http://sodipodi.sourceforge.net/DTD/sodipodi-0.dtd"
   xmlns="http://www.w3.org/2000/svg"
   xmlns:svg="http://www.w3.org/2000/svg"
   xmlns:rdf="http://www.w3.org/1999/02/22-rdf-syntax-ns#"
   xmlns:cc="http://creativecommons.org/ns#"
   xmlns:dc="http://purl.org/dc/elements/1.1/">
  <metadata
   id="metadata857">
    <rdf:RDF>
      <cc:Work
   rdf:about="">
        <dc:format>image/svg+xml</dc:format>

        <dc:type
   rdf:resource="http://purl.org/dc/dcmitype/StillImage" />

        

      </cc:Work>

    </rdf:RDF>

  </metadata>

  <defs
   id="defs855">
    <clipPath
   clipPathUnits="userSpaceOnUse"
   id="clipPath867">
      <path
   d="M 0,0 H 612 V 792 H 0 Z"
   clip-rule="evenodd"
   id="path865"
   inkscape:connector-curvature="0" />

    </clipPath>

    <clipPath
   clipPathUnits="userSpaceOnUse"
   id="clipPath883">
      <path
   d="M 0,0 H 612 V 791.25 H 0 Z"
   clip-rule="evenodd"
   id="path881"
   inkscape:connector-curvature="0" />

    </clipPath>

    <clipPath
   clipPathUnits="userSpaceOnUse"
   id="clipPath895">
      <path
   d="M 0,0 H 612 V 791.25 H 0 Z"
   clip-rule="evenodd"
   id="path893"
   inkscape:connector-curvature="0" />

    </clipPath>

    <clipPath
   clipPathUnits="userSpaceOnUse"
   id="clipPath907">
      <path
   d="M 0,0 H 612 V 791.25 H 0 Z"
   clip-rule="evenodd"
   id="path905"
   inkscape:connector-curvature="0" />

    </clipPath>

    <clipPath
   clipPathUnits="userSpaceOnUse"
   id="clipPath929">
      <path
   d="M 0,0 H 612 V 791.25 H 0 Z"
   clip-rule="evenodd"
   id="path927"
   inkscape:connector-curvature="0" />

    </clipPath>

  </defs>

  <sodipodi:namedview
   pagecolor="#ffffff"
   bordercolor="#666666"
   inkscape:document-rotation="0"
   borderopacity="1"
   objecttolerance="10"
   gridtolerance="10"
   guidetolerance="10"
   inkscape:pageopacity="0"
   inkscape:pageshadow="2"
   inkscape:window-width="1600"
   inkscape:window-height="907"
   id="namedview853"
   showgrid="false"
   fit-margin-top="0"
   fit-margin-left="0"
   fit-margin-right="0"
   fit-margin-bottom="0"
   inkscape:zoom="5.6568542"
   inkscape:cx="70.09196"
   inkscape:cy="19.357048"
   inkscape:window-x="0"
   inkscape:window-y="25"
   inkscape:window-maximized="0"
   inkscape:current-layer="g859"
   inkscape:snap-global="false"
   inkscape:pagecheckerboard="0" />

  <g
   id="g859"
   inkscape:groupmode="layer"
   inkscape:label="Untitled document"
   transform="matrix(1.3333333,0,0,1.3333333,334.94227,271.35783)">
    <path
   style="fill:#005629;fill-opacity:1;stroke-width:0.18"
   d="M -242.05757,-180.40347 C -239.77533,-182.52535 -230.838,-186.57288 -231.01255,-179.30447 -231.03085,-178.54253 -231.09611,-177.68602 -229.72837,-177.92602 -224.2532,-178.88675 -222.14678,-183.42 -221.68546,-184.62817 L -221.3037,-185.62796 -223.8352,-191.9759 C -225.22753,-195.46727 -226.36671,-198.36248 -226.36671,-198.4097 -226.36671,-198.45692 -225.87261,-198.47144 -225.26872,-198.44197 L -224.17072,-198.38838 -222.30018,-193.43838 C -221.27137,-190.71588 -220.37918,-188.36688 -220.31752,-188.21838 -220.25363,-188.06452 -219.71242,-189.41948 -219.05931,-191.36838 -218.42895,-193.24938 -217.61943,-195.61863 -217.26038,-196.63338 L -216.60755,-198.47838 H -215.54713 C -214.9639,-198.47838 -214.48671,-198.4468 -214.48671,-198.40819 -214.48671,-198.05973 -220.0235,-183.24213 -220.45907,-182.42492 -220.97457,-181.45773 -222.99657,-177.16705 -230.09964,-175.35973 -230.78457,-175.18546 -231.11893,-174.53839 -230.92364,-173.92243 -228.95891,-167.72571 -238.47149,-168.81977 -241.17841,-170.54255 -243.674,-171.69931 -243.66091,-174.9175 -245.86788,-176.12007 -242.80643,-177.84615 -243.7915,-178.79137 -242.05757,-180.40347 Z M -210.48948,-185.69701 C -211.09967,-185.97395 -211.34581,-186.22873 -211.65948,-186.90806 -212.02992,-187.71036 -212.06066,-188.07489 -212.11535,-192.31338 L -212.174,-196.85838 H -213.06035 -213.94671 V -197.56149 -198.2646 L -213.04919,-198.38804 C -212.07273,-198.52234 -212.03154,-198.58664 -211.68497,-200.51775 -211.61693,-200.8969 -211.47023,-201.23439 -211.35898,-201.26772 -211.24773,-201.30104 -210.93725,-201.3763 -210.66902,-201.43494 L -210.18132,-201.54157 -210.12902,-200.05498 -210.07671,-198.56838 -208.32171,-198.51686 -206.56671,-198.46534 V -197.66186 -196.85838 H -208.36671 -210.16671 L -210.16309,-193.48338 C -210.15879,-189.47551 -209.9792,-187.95024 -209.4495,-187.42272 -209.12893,-187.10348 -208.87587,-187.05307 -207.73016,-187.08026 L -206.38671,-187.11214 V -186.33776 C -206.38671,-185.61445 -206.42381,-185.55596 -206.94921,-185.45088 -208.0719,-185.22634 -209.70216,-185.33968 -210.48948,-185.69701 Z M -251.20671,-194.35601 V -203.19363 L -247.29171,-203.11473 C -242.91397,-203.02651 -242.2587,-202.88963 -240.98185,-201.7967 -239.99161,-200.94909 -239.5943,-199.86127 -239.60554,-198.02838 -239.62012,-195.64987 -240.55144,-194.19107 -242.55564,-193.40745 -243.38211,-193.0843 -244.03548,-193.00242 -246.30171,-192.93797 L -249.04671,-192.85991 V -189.18915 -185.51838 H -250.12671 -251.20671 Z M -243.36423,-195.25315 C -242.25796,-195.80742 -241.78671,-196.66359 -241.78671,-198.11919 -241.78671,-199.40844 -242.21529,-200.19618 -243.19671,-200.71082 -243.80841,-201.03159 -244.30254,-201.09769 -246.48171,-201.15026 L -249.04671,-201.21214 V -198.07526 C -249.04671,-196.34998 -248.98596,-194.87545 -248.91171,-194.79854 -248.83746,-194.72163 -247.75435,-194.69452 -246.50481,-194.73831 -244.55926,-194.80649 -244.10812,-194.88044 -243.36423,-195.25315 Z M -237.70671,-194.5094 V -203.51838 H -236.60954 -235.51237 L -235.57454,-200.19762 -235.63671,-196.87686 -235.18671,-197.30149 C -234.16066,-198.2697 -233.24827,-198.56838 -231.31671,-198.56838 -229.60661,-198.56838 -229.47852,-198.54141 -228.75216,-198.02838 -227.21902,-196.94553 -226.86373,-195.22857 -226.94571,-189.29838 L -226.99671,-185.60838 -228.02091,-185.55472 -229.04512,-185.50106 -229.10091,-190.32472 C -229.14959,-194.5326 -229.1974,-195.22284 -229.47546,-195.73168 -229.96891,-196.63471 -230.59309,-196.95071 -231.84885,-196.93326 -233.17672,-196.9148 -234.23382,-196.41948 -234.95128,-195.47956 L -235.45671,-194.81742 -235.54671,-190.2129 -235.63671,-185.60838 -236.67171,-185.5544 -237.70671,-185.50041 Z"
   id="path1040"
   inkscape:connector-curvature="0"
   sodipodi:nodetypes="sssccsscccccccsscssccscccccccccccccccccccccscccsccccccccccccccccscscsssccccccccsccccccccccccccc" />

    <path
   style="fill:#ffffff;fill-opacity:1;stroke:none;stroke-width:0.75085px;stroke-linecap:butt;stroke-linejoin:miter;stroke-opacity:1"
   d="M -243.32095,-175.55267 C -242.12306,-175.61706 -240.59964,-175.75207 -240.54039,-175.96503 -240.28107,-176.97393 -241.05658,-177.92132 -241.58318,-178.99522 -240.43774,-177.8826 -239.9647,-176.91488 -239.65599,-175.98257 -238.77915,-175.91971 -238.32993,-175.89971 -237.33228,-176.1807 -237.29027,-177.98662 -238.18296,-178.57473 -238.61905,-179.74786 -237.84351,-178.79835 -236.62533,-178.07802 -236.30838,-176.35363 -235.85454,-176.1385 -235.05021,-176.37804 -234.61306,-176.48406 -234.42943,-177.49394 -235.50923,-179.75397 -236.08326,-180.92711 -235.15523,-179.78759 -233.79882,-177.81459 -233.73013,-176.52994 -233.49137,-176.38366 -232.43241,-176.51637 -232.20171,-176.52507 L -232.10595,-175.98015 C -232.51183,-175.94364 -232.78667,-175.80533 -232.9122,-175.72698 -232.2695,-174.01727 -232.79372,-173.01004 -232.79045,-171.67013 -233.08241,-173.04625 -233.10218,-174.83351 -233.73718,-175.69151 -234.22863,-175.71444 -234.74443,-175.71539 -235.43251,-175.56108 -234.93159,-173.00312 -235.62749,-172.78246 -235.72736,-171.39779 -235.94502,-172.73964 -235.59131,-173.49665 -236.46261,-175.50756 -237.30566,-175.5393 -237.63738,-175.63418 -238.74049,-175.43151 -238.67423,-173.92576 -239.23518,-172.75839 -239.71919,-171.54952 -239.61688,-173.02788 -239.25953,-174.8562 -239.61721,-175.26623 -239.84407,-175.52629 -241.97534,-175.49437 -243.32095,-175.55267 Z"
   id="path1066"
   inkscape:connector-curvature="0"
   sodipodi:nodetypes="cccccccccccccccccccccc" />

  <path
   sodipodi:nodetypes="cccccccscccsscsscccsccccccc"
   inkscape:connector-curvature="0"
   id="path850"
   d="M -203.60426,-185.74338 C -203.6517,-185.86713 -203.66941,-189.73488 -203.64361,-194.33838 L -203.59671,-202.70838 -201.93171,-202.76014 -200.26671,-202.81189 V -194.16514 -185.51838 H -201.89236 C -203.02687,-185.51838 -203.54406,-185.58636 -203.60426,-185.74338 Z M -196.66671,-194.13661 V -202.79838 H -193.82699 C -190.47726,-202.79838 -188.38539,-202.56753 -186.98402,-202.04321 -183.6461,-200.79433 -182.12303,-198.62519 -181.95083,-194.87502 -181.80308,-191.65717 -182.51095,-189.55834 -184.29341,-187.92927 -186.33222,-186.06591 -187.6782,-185.69027 -192.75171,-185.56867 L -196.66671,-185.47484 Z M -188.25584,-188.7424 C -186.2471,-189.63217 -185.25426,-191.42905 -185.26332,-194.15838 -185.27266,-196.97188 -186.03957,-198.45785 -187.97371,-199.41003 -189.05701,-199.94333 -189.32572,-199.99654 -191.28962,-200.06656 L -193.42671,-200.14275 V -194.16161 -188.18046 L -191.31171,-188.25305 C -189.59823,-188.31185 -189.01809,-188.40475 -188.25584,-188.7424 Z"
   style="fill:#450000;fill-opacity:1;stroke-width:0.18" />
</g>

</svg>
