<?xml version="1.0" encoding="UTF-8" standalone="no"?>
<!-- Created with Inkscape (http://www.inkscape.org/) -->

<svg
   version="1.1"
   id="svg824"
   xml:space="preserve"
   width="572.15906"
   height="421.37408"
   viewBox="0 0 572.15906 421.37408"
   sodipodi:docname="phytoid-withtagline.svg"
   inkscape:version="1.1 (c4e8f9e, 2021-05-24)"
   xmlns:inkscape="http://www.inkscape.org/namespaces/inkscape"
   xmlns:sodipodi="http://sodipodi.sourceforge.net/DTD/sodipodi-0.dtd"
   xmlns="http://www.w3.org/2000/svg"
   xmlns:svg="http://www.w3.org/2000/svg"><defs
     id="defs828"><clipPath
       clipPathUnits="userSpaceOnUse"
       id="clipPath838"><path
         d="M 0,720 H 720 V 0 H 0 Z"
         id="path836" /></clipPath></defs><sodipodi:namedview
     id="namedview826"
     pagecolor="#ffffff"
     bordercolor="#666666"
     borderopacity="1.0"
     inkscape:pageshadow="2"
     inkscape:pageopacity="0.0"
     inkscape:pagecheckerboard="0"
     showgrid="false"
     inkscape:zoom="0.98333333"
     inkscape:cx="285.25424"
     inkscape:cy="208.98305"
     inkscape:window-width="1680"
     inkscape:window-height="997"
     inkscape:window-x="0"
     inkscape:window-y="25"
     inkscape:window-maximized="1"
     inkscape:current-layer="g830"
     fit-margin-top="20"
     fit-margin-left="20"
     fit-margin-right="20"
     fit-margin-bottom="20" /><g
     id="g830"
     inkscape:groupmode="layer"
     inkscape:label="836_PhytoID_DV (1)"
     transform="matrix(1.3333333,0,0,-1.3333333,-193.92053,690.6874)"><path
       id="path866"
       style="fill:#00600b;fill-opacity:1;fill-rule:nonzero;stroke:none"
       d="M 522.7227,291.9048 V 247.5748 H 537.0007 C 545.9137,247.5748 552.9337,250.8878 552.9337,261.1418 V 278.4168 C 552.9337,288.6708 545.9137,291.9048 537.0007,291.9048 Z M 522.5657,242.1328 C 521.9357,242.1328 516.0977,242.2908 516.0977,246.0768 V 297.3468 H 537.0007 C 548.5947,297.3468 559.5597,293.4038 559.5597,279.1268 V 260.3538 C 559.5597,246.0768 548.5947,242.1328 537.0007,242.1328 Z M 481.0771,298.1362 C 481.0771,298.1362 487.7021,298.1362 487.7021,294.1922 V 241.3442 C 487.7021,241.3442 481.0771,241.3442 481.0771,245.2882 Z M 446.8457,279.7573 C 446.8457,287.9613 444.3997,292.8513 431.6217,292.8513 419.0007,292.8513 416.5557,287.9613 416.5557,279.7573 V 259.7223 C 416.5557,251.5193 419.0007,246.6293 431.6217,246.6293 444.3997,246.6293 446.8457,251.5193 446.8457,259.7223 Z M 453.4707,258.6963 C 453.4707,247.7333 446.5297,241.1863 431.6997,241.1863 416.7927,241.1863 409.9297,247.7333 409.9297,258.6963 V 280.7833 C 409.9297,291.7463 416.7927,298.2943 431.6997,298.2943 446.5297,298.2943 453.4707,291.7463 453.4707,280.7833 Z M 371.832,291.9048 V 241.3438 C 371.832,241.3438 365.205,241.3438 365.205,245.2878 V 291.9048 H 352.743 C 347.931,291.9048 347.221,296.1638 347.221,298.5308 347.221,298.5308 348.641,297.3468 354.005,297.3468 H 383.27 C 388.633,297.3468 390.052,298.5308 390.052,298.5308 390.052,296.1638 389.342,291.9048 384.53,291.9048 Z M 305.8901,245.3667 V 265.8747 C 296.8191,274.0777 291.3761,291.3527 287.2741,297.5837 287.2741,297.5837 288.2211,297.8207 289.5621,297.8207 291.7701,297.8207 294.6891,297.1107 296.7401,293.3247 301.0781,285.1207 304.3121,276.1297 309.2031,271.2387 314.0141,276.1297 317.2481,285.1207 321.6651,293.3247 323.7161,297.1107 326.6351,297.8207 328.8431,297.8207 330.1841,297.8207 331.1311,297.5837 331.1311,297.5837 327.0291,291.3527 321.5071,274.0777 312.5151,265.8747 V 241.3437 C 312.5151,241.3437 305.8901,241.3437 305.8901,245.3667 M 258.4062,267.9258 H 228.6692 V 241.3438 C 228.6692,241.3438 222.0432,241.3438 222.0432,245.2878 V 298.1358 C 222.0432,298.1358 228.6692,298.1358 228.6692,294.1918 V 273.4468 H 258.4062 V 298.1358 C 258.4062,298.1358 265.0312,298.1358 265.0312,294.1918 V 241.3438 C 265.0312,241.3438 258.4062,241.3438 258.4062,245.2878 Z M 167.0664,291.9048 V 266.4268 H 174.3224 C 183.2354,266.4268 189.4674,268.1628 189.4674,279.2048 189.4674,289.4598 183.2354,291.9048 174.3224,291.9048 Z M 160.4404,297.3468 H 174.3224 C 185.9184,297.3468 196.0934,294.0338 196.0934,279.9148 V 278.4958 C 196.0934,264.7708 185.9184,260.9848 174.3224,260.9848 H 167.0664 V 241.3438 C 167.0664,241.3438 160.4404,241.3438 160.4404,245.2878 Z" /><g
       id="g880"
       transform="translate(247.2896,222.1987)" /><g
       id="g888"
       transform="translate(275.771,227.3984)" /><g
       id="g896"
       transform="translate(315.9819,226.2671)" /><g
       id="g900"
       transform="translate(328.5396,222.1987)" /><g
       id="g904"
       transform="translate(345.7666,218.1162)" /><g
       id="g908"
       transform="translate(361.1602,226.2671)" /><g
       id="g912"
       transform="translate(372.5146,227.3984)" /><g
       id="g916"
       transform="translate(388.9844,219.7495)" /><g
       id="g920"
       transform="translate(399.7217,220.3652)" /><g
       id="g924"
       transform="translate(430.9834,218.1162)" /><g
       id="g928"
       transform="translate(444.6582,222.1987)" /><g
       id="g932"
       transform="translate(459.6367,226.2671)" /><g
       id="g936"
       transform="translate(474.4277,221.124)" /><g
       id="g940"
       transform="translate(489.6494,227.3984)" /><g
       id="g944"
       transform="translate(501.0781,223.9175)" /><g
       id="g948"
       transform="translate(517.6875,222.1987)"><path
         id="path950"
         style="fill:#00600b;fill-opacity:1;fill-rule:nonzero;stroke:none"
         d="M 0,0 V -3.982 H 5.113 C 5.113,-4.039 5.101,-4.971 4.397,-4.971 H 0 C 0,-4.971 -1.203,-4.971 -1.203,-4.254 V 5.056 H 5.113 C 5.113,5.056 5.113,4.068 4.397,4.068 H 0 V 0.988 H 3.309 C 4.282,0.988 4.541,1.204 4.541,1.204 4.541,0.773 4.412,0 3.538,0 Z M -16.6094,1.7188 V -1.6182 C -16.6094,-3.4812 -15.3354,-4.0822 -13.7154,-4.0822 -12.2414,-4.0822 -10.3924,-3.6242 -10.3924,-2.3352 -9.1894,-4.5702 -11.7544,-5.1422 -13.7154,-5.1422 -15.8224,-5.1422 -17.8134,-4.2822 -17.8134,-1.8332 V 1.9198 C -17.8134,4.3688 -15.8224,5.2288 -13.7154,5.2288 -11.7544,5.2288 -9.1894,4.6558 -10.3924,2.4208 -10.3924,3.5668 -12.2414,4.1688 -13.7154,4.1688 -15.3354,4.1688 -16.6094,3.5818 -16.6094,1.7188 M -28.0381,5.1997 C -28.0381,5.1997 -26.8341,5.1997 -26.8341,4.4837 V -5.1143 C -26.8341,-5.1143 -28.0381,-5.1143 -28.0381,-4.3983 Z M -43.2598,-1.0747 -44.3918,2.5073 C -44.7778,3.7243 -45.0788,4.7273 -45.3228,5.0993 -45.3228,5.0993 -45.1928,5.1423 -44.9488,5.1423 -43.8038,5.1423 -43.5178,3.8533 -43.1738,2.7793 L -42.0138,-0.8457 C -41.3978,-2.7927 -40.7238,-3.4947 -40.7238,-3.4947 -40.7238,-3.4947 -40.0508,-2.7927 -39.4348,-0.8457 L -38.2748,2.7793 C -37.9318,3.8533 -37.6448,5.1423 -36.4988,5.1423 -36.2548,5.1423 -36.1258,5.0993 -36.1258,5.0993 -36.3688,4.7273 -36.6708,3.7243 -37.0568,2.5073 L -38.1888,-1.0747 C -39.1188,-4.0257 -40.7238,-5.2137 -40.7238,-5.2137 -40.7238,-5.2137 -42.3288,-4.0257 -43.2598,-1.0747 M -58.0508,4.0684 V 0.6014 H -56.1898 C -54.6558,0.6014 -54.1258,1.2324 -54.1258,2.4214 -54.1258,3.6384 -54.8278,4.0684 -56.3028,4.0684 Z M -55.8308,-0.3006 C -53.8548,-1.0746 -53.0368,-3.9826 -52.3358,-5.0416 -52.3358,-5.0416 -52.5078,-5.0846 -52.7508,-5.0846 -53.1528,-5.0846 -53.7688,-4.9556 -54.1408,-4.2686 -55.2728,-2.1626 -55.8018,-0.6306 -58.0508,-0.3436 V -5.1146 C -58.0508,-5.1146 -59.2548,-5.0996 -59.2548,-4.3976 V 5.0564 H -56.3028 C -54.3408,5.0564 -52.9228,4.4404 -52.9228,2.6354 V 2.2064 C -52.9228,0.5874 -54.1408,-0.3006 -55.8308,-0.3006 M -73.0293,0 V -3.982 H -67.9163 C -67.9163,-4.039 -67.9293,-4.971 -68.6323,-4.971 H -73.0293 C -73.0293,-4.971 -74.2333,-4.971 -74.2333,-4.254 V 5.056 H -67.9163 C -67.9163,5.056 -67.9163,4.068 -68.6323,4.068 H -73.0293 V 0.988 H -69.7203 C -68.7473,0.988 -68.4893,1.204 -68.4893,1.204 -68.4893,0.773 -68.6173,0 -69.4913,0 Z M -86.7041,-4.0825 C -85.0871,-4.0825 -84.2261,-3.3235 -84.2261,-2.1775 -84.2261,0.8315 -90.5871,-1.5035 -90.5871,2.3495 -90.5871,4.5555 -88.8821,5.2285 -86.7761,5.2285 -85.0721,5.2285 -83.3091,4.9415 -83.3091,3.5815 -83.3091,3.2655 -83.4101,2.8795 -83.6401,2.4205 -83.6401,3.9255 -85.1581,4.1685 -86.7761,4.1685 -88.3231,4.1685 -89.3261,3.7385 -89.3261,2.4785 -89.3261,-0.2295 -82.9661,2.1775 -82.9661,-2.1055 -82.9661,-4.1255 -84.5991,-5.1425 -86.7041,-5.1425 -88.4091,-5.1425 -90.3711,-4.8555 -90.3711,-3.4805 -90.3711,-3.1655 -90.2711,-2.7795 -90.0421,-2.3345 -90.0421,-3.8385 -88.3231,-4.0825 -86.7041,-4.0825 M -117.9658,-1.8335 V 1.9195 C -117.9658,4.3695 -116.1168,5.2285 -114.0118,5.2285 -111.9058,5.2285 -109.3418,4.6555 -110.5448,2.4205 -110.5448,3.5665 -112.3938,4.1685 -114.0118,4.1685 -115.6308,4.1685 -116.7618,3.5815 -116.7618,1.7185 V -1.6185 C -116.7618,-3.4805 -115.6308,-4.0825 -114.0118,-4.0825 -112.3938,-4.0825 -111.2608,-3.7675 -111.2608,-1.7615 V -0.8735 H -113.2668 C -114.1978,-0.8735 -114.1268,0.3295 -114.1268,0.3295 -114.1268,0.3295 -113.7548,0.1145 -113.0238,0.1145 H -110.0588 V -1.9775 C -110.0588,-4.3685 -111.9058,-5.1425 -114.0118,-5.1425 -116.1168,-5.1425 -117.9658,-4.2825 -117.9658,-1.8335 M -128.7031,-2.4492 -128.0441,-3.5382 C -128.0441,-3.5382 -128.1861,-2.7932 -128.1861,-2.3642 V 5.0558 C -128.1861,5.0558 -126.9841,5.0558 -126.9841,4.3408 V -5.1142 C -128.5161,-5.1142 -128.9321,-4.1822 -128.9321,-4.1822 L -133.7441,3.5948 C -133.7441,3.5948 -133.6011,2.9078 -133.6011,2.3058 V -5.1142 C -133.6011,-5.1142 -134.8061,-5.1142 -134.8061,-4.3982 V 5.0558 C -133.9891,5.0558 -133.3151,5.0558 -132.8711,4.3408 Z M -145.1729,5.1997 C -145.1729,5.1997 -143.9699,5.1997 -143.9699,4.4837 V -5.1143 C -143.9699,-5.1143 -145.1729,-5.1143 -145.1729,-4.3983 Z M -156.5273,4.0684 V -5.1146 C -156.5273,-5.1146 -157.7313,-5.1146 -157.7313,-4.3976 V 4.0684 H -159.9933 C -160.8673,4.0684 -160.9953,4.8414 -160.9953,5.2714 -160.9953,5.2714 -160.7373,5.0564 -159.7643,5.0564 H -154.4503 C -153.4763,5.0564 -153.2183,5.2714 -153.2183,5.2714 -153.2183,4.8414 -153.3463,4.0684 -154.2203,4.0684 Z M -171.9209,-4.0825 C -170.3029,-4.0825 -169.4429,-3.3235 -169.4429,-2.1775 -169.4429,0.8315 -175.8039,-1.5035 -175.8039,2.3495 -175.8039,4.5555 -174.0979,5.2285 -171.9919,5.2285 -170.2879,5.2285 -168.5259,4.9415 -168.5259,3.5815 -168.5259,3.2655 -168.6269,2.8795 -168.8559,2.4205 -168.8559,3.9255 -170.3749,4.1685 -171.9919,4.1685 -173.5399,4.1685 -174.5429,3.7385 -174.5429,2.4785 -174.5429,-0.2295 -168.1819,2.1775 -168.1819,-2.1055 -168.1819,-4.1255 -169.8149,-5.1425 -171.9209,-5.1425 -173.6259,-5.1425 -175.5879,-4.8555 -175.5879,-3.4805 -175.5879,-3.1655 -175.4869,-2.7795 -175.2579,-2.3345 -175.2579,-3.8385 -173.5399,-4.0825 -171.9209,-4.0825 M -189.1479,0 V -3.982 H -184.0349 C -184.0349,-4.039 -184.0479,-4.971 -184.7509,-4.971 H -189.1479 C -189.1479,-4.971 -190.3519,-4.971 -190.3519,-4.254 V 5.056 H -184.0349 C -184.0349,5.056 -184.0349,4.068 -184.7509,4.068 H -189.1479 V 0.988 H -185.8389 C -184.8659,0.988 -184.6079,1.204 -184.6079,1.204 -184.6079,0.773 -184.7359,0 -185.6109,0 Z M -201.7056,4.0684 V -5.1146 C -201.7056,-5.1146 -202.9096,-5.1146 -202.9096,-4.3976 V 4.0684 H -205.1716 C -206.0456,4.0684 -206.1746,4.8414 -206.1746,5.2714 -206.1746,5.2714 -205.9166,5.0564 -204.9426,5.0564 H -199.6286 C -198.6546,5.0564 -198.3966,5.2714 -198.3966,5.2714 -198.3966,4.8414 -198.5256,4.0684 -199.3996,4.0684 Z M -230.4888,1.7188 V -1.6182 C -230.4888,-3.4812 -229.2148,-4.0822 -227.5958,-4.0822 -226.1208,-4.0822 -224.2728,-3.6242 -224.2728,-2.3352 -223.0698,-4.5702 -225.6338,-5.1422 -227.5958,-5.1422 -229.7018,-5.1422 -231.6928,-4.2822 -231.6928,-1.8332 V 1.9198 C -231.6928,4.3688 -229.7018,5.2288 -227.5958,5.2288 -225.6338,5.2288 -223.0698,4.6558 -224.2728,2.4208 -224.2728,3.5668 -226.1208,4.1688 -227.5958,4.1688 -229.2148,4.1688 -230.4888,3.5818 -230.4888,1.7188 M -241.9165,5.1997 C -241.9165,5.1997 -240.7125,5.1997 -240.7125,4.4837 V -5.1143 C -240.7125,-5.1143 -241.9165,-5.1143 -241.9165,-4.3983 Z M -253.2705,4.0684 V -5.1146 C -253.2705,-5.1146 -254.4745,-5.1146 -254.4745,-4.3976 V 4.0684 H -256.7365 C -257.6105,4.0684 -257.7395,4.8414 -257.7395,5.2714 -257.7395,5.2714 -257.4805,5.0564 -256.5075,5.0564 H -251.1935 C -250.2195,5.0564 -249.9615,5.2714 -249.9615,5.2714 -249.9615,4.8414 -250.0895,4.0684 -250.9645,4.0684 Z M -270.3979,0 V -3.982 H -265.2839 C -265.2839,-4.039 -265.2979,-4.971 -266.0009,-4.971 H -270.3979 C -270.3979,-4.971 -271.6009,-4.971 -271.6009,-4.254 V 5.056 H -265.2839 C -265.2839,5.056 -265.2839,4.068 -266.0009,4.068 H -270.3979 V 0.988 H -267.0889 C -266.1149,0.988 -265.8569,1.204 -265.8569,1.204 -265.8569,0.773 -265.9859,0 -266.8589,0 Z M -282.4824,-2.4492 -281.8234,-3.5382 C -281.8234,-3.5382 -281.9664,-2.7932 -281.9664,-2.3642 V 5.0558 C -281.9664,5.0558 -280.7634,5.0558 -280.7634,4.3408 V -5.1142 C -282.2954,-5.1142 -282.7114,-4.1822 -282.7114,-4.1822 L -287.5244,3.5948 C -287.5244,3.5948 -287.3804,2.9078 -287.3804,2.3058 V -5.1142 C -287.3804,-5.1142 -288.5854,-5.1142 -288.5854,-4.3982 V 5.0558 C -287.7684,5.0558 -287.0944,5.0558 -286.6504,4.3408 Z M -302.3594,0 V -3.982 H -297.2454 C -297.2454,-4.039 -297.2604,-4.971 -297.9624,-4.971 H -302.3594 C -302.3594,-4.971 -303.5634,-4.971 -303.5634,-4.254 V 5.056 H -297.2454 C -297.2454,5.056 -297.2454,4.068 -297.9624,4.068 H -302.3594 V 0.988 H -299.0504 C -298.0764,0.988 -297.8184,1.204 -297.8184,1.204 -297.8184,0.773 -297.9474,0 -298.8214,0 Z M -320.4883,-1.8335 V 1.9195 C -320.4883,4.3695 -318.6403,5.2285 -316.5353,5.2285 -314.4283,5.2285 -311.8653,4.6555 -313.0683,2.4205 -313.0683,3.5665 -314.9163,4.1685 -316.5353,4.1685 -318.1533,4.1685 -319.2853,3.5815 -319.2853,1.7185 V -1.6185 C -319.2853,-3.4805 -318.1533,-4.0825 -316.5353,-4.0825 -314.9163,-4.0825 -313.7843,-3.7675 -313.7843,-1.7615 V -0.8735 H -315.7903 C -316.7203,-0.8735 -316.6493,0.3295 -316.6493,0.3295 -316.6493,0.3295 -316.2773,0.1145 -315.5473,0.1145 H -312.5813 V -1.9775 C -312.5813,-4.3685 -314.4283,-5.1425 -316.5353,-5.1425 -318.6403,-5.1425 -320.4883,-4.2825 -320.4883,-1.8335" /></g><g
       id="g952"
       transform="translate(384.8711,405.4033)" /><g
       id="g956"
       transform="translate(431.0156,478.8989)"><path
         d="M 0,0 H -0.021 C -0.042,0.021 -0.084,0.021 -0.105,0.042 -0.063,0.042 -0.042,0.021 0,0"
         style="fill:#007f06;fill-opacity:1;fill-rule:nonzero;stroke:none"
         id="path958" /></g><g
       id="g960"
       transform="translate(430.9102,478.9409)" /><g
       id="g964"
       transform="translate(378.9463,419.4419)" /><g
       id="g968"
       transform="translate(443.0029,469.0186)" /><g
       id="g972"
       transform="translate(444.6924,474.8589)"><path
         id="path974"
         style="fill:#00600b;fill-opacity:1;fill-rule:nonzero;stroke:none"
         d="M 0,0 C 0,0 -16.749,1.473 -35.434,-9.889 -36.802,-10.71 -38.148,-11.446 -39.495,-12.099 -41.073,-12.856 -42.651,-13.487 -44.188,-13.971 -58.096,-18.517 -70.384,-13.298 -75.687,-1.894 -75.854,-1.599 -75.981,-1.283 -76.129,-0.968 -74.214,-0.063 -72.173,0.694 -70.047,1.368 -47.996,8.291 -15.781,4.292 -13.698,4.04 -13.719,4.061 -13.761,4.061 -13.782,4.082 -23.756,7.07 -34.003,8.88 -44.271,9.258 -54.561,9.595 -64.893,8.375 -74.445,5.05 -75.519,4.671 -76.592,4.25 -77.644,3.809 -77.706,4.082 -77.77,4.356 -77.833,4.65 -77.791,6.102 -77.496,7.659 -76.949,9.237 -73.729,18.58 -61.946,29.227 -42.378,28.07 -19.484,26.702 0,0 0,0 M -1.6895,-5.8403 C -1.7935,-5.8393 -1.8835,-5.8373 -2.0015,-5.8373 -6.6355,-5.8373 -18.8735,-6.7233 -32.3695,-14.9303 -33.9585,-15.8843 -35.4375,-16.6893 -36.9225,-17.4083 -37.4665,-17.6703 -38.0095,-17.9133 -38.5515,-18.1483 -37.5445,-18.9343 -36.5535,-19.7383 -35.5855,-20.5693 -19.3615,-34.8793 -9.1115,-55.8173 -9.1115,-79.0953 -9.1115,-122.1253 -44.1035,-157.1173 -87.1335,-157.1173 -130.1635,-157.1173 -165.1765,-122.1253 -165.1765,-79.0953 -165.1765,-45.7603 -144.1525,-17.2533 -114.6785,-6.0923 -126.6095,-28.4193 -128.3555,-48.3443 -117.4935,-65.7143 L -117.4925,-65.6993 C -119.1695,-62.5713 -120.4805,-59.3423 -121.3385,-56.1173 -122.9575,-50.2033 -123.3235,-43.5503 -122.3835,-36.9213 -121.6375,-31.2773 -120.0865,-25.5993 -117.6485,-19.6173 -115.1085,-13.8253 -111.8125,-8.6043 -107.7925,-3.9533 -107.1735,-3.2383 -106.5535,-2.5493 -105.9115,-1.8843 -104.7255,-0.6273 -103.4195,0.6037 -102.0745,1.7967 -140.3165,-5.2573 -169.3845,-38.8443 -169.3845,-79.0953 -169.3845,-124.4403 -132.4785,-161.3263 -87.1335,-161.3263 -41.7885,-161.3263 -4.9025,-124.4403 -4.9025,-79.0953 -4.9025,-55.9293 -14.5375,-34.9733 -29.9945,-20.0153 -20.6255,-11.3613 -7.6515,-7.3273 -1.6895,-5.8403 M -65.7461,-55.417 C -69.9891,-65.417 -78.8501,-72.706 -88.0421,-79.886 -92.6501,-83.518 -97.4531,-87.143 -101.9941,-91.358 -104.2621,-93.446 -106.4671,-95.724 -108.4631,-98.225 -109.4991,-99.426 -110.3671,-100.843 -111.2991,-102.148 -112.1101,-103.572 -112.9261,-105 -113.6031,-106.497 -114.1721,-108.062 -114.9361,-109.525 -115.2501,-111.175 L -115.8391,-113.583 C -116.0111,-114.388 -116.0151,-115.226 -116.1001,-116.041 -116.1451,-116.861 -116.2711,-117.674 -116.2411,-118.486 L -116.0921,-120.913 C -116.0701,-122.534 -115.6781,-124.084 -115.3601,-125.632 -113.8881,-131.553 -111.1081,-136.809 -107.7391,-141.514 -107.6141,-141.688 -107.4951,-141.867 -107.3681,-142.04 -107.4251,-141.864 -107.4791,-141.689 -107.5361,-141.514 -109.3201,-135.975 -110.9361,-130.481 -111.1681,-125.023 -111.5311,-119.412 -110.2461,-114.109 -107.6071,-109.556 -104.8941,-105.012 -100.9031,-101.133 -96.5651,-97.48 -92.2071,-93.825 -87.4571,-90.371 -82.7231,-86.675 -78.0121,-82.956 -73.2611,-79.001 -69.0591,-74.272 -64.8661,-69.586 -61.2641,-63.95 -59.4351,-57.687 -57.4861,-51.457 -57.4551,-44.856 -58.6041,-38.769 -59.2451,-35.727 -60.1701,-32.804 -61.3041,-29.993 -62.4431,-27.165 -63.7951,-24.449 -65.2851,-21.839 -64.7251,-24.584 -64.1681,-27.297 -63.7161,-29.993 -63.1971,-33.09 -62.8211,-36.165 -62.7921,-39.232 -62.6911,-44.939 -63.6471,-50.459 -65.7461,-55.417 M -13.7822,4.082 C -23.7562,7.07 -34.0032,8.88 -44.2712,9.258 -54.5602,9.595 -64.8922,8.375 -74.4452,5.05 -75.5182,4.671 -76.5922,4.25 -77.6432,3.809 -78.4012,3.514 -79.1372,3.177 -79.8742,2.841 -82.3362,1.705 -84.6922,0.4 -86.9442,-1.052 -87.2382,-1.241 -87.5542,-1.431 -87.8482,-1.641 -89.7842,-2.967 -91.6152,-4.418 -93.3402,-5.976 -95.2972,-7.722 -97.1282,-9.616 -98.7902,-11.636 -101.9252,-15.423 -104.5342,-19.779 -106.3232,-24.219 -108.0062,-28.848 -109.4582,-33.73 -110.0262,-38.569 V -38.758 H -66.9542 V -39.032 L -66.9332,-39.158 C -66.9332,-39.937 -67.0172,-40.884 -67.0802,-41.915 H -110.3002 C -110.4682,-45.639 -110.0902,-49.321 -109.1852,-52.856 -108.6372,-55.023 -107.8172,-57.085 -106.8282,-59.106 H -72.9302 C -73.1822,-59.463 -73.4142,-59.842 -73.6872,-60.2 -74.2142,-60.894 -74.7612,-61.567 -75.3492,-62.262 H -105.0602 C -104.3452,-63.398 -103.5882,-64.535 -102.7462,-65.628 -99.5902,-69.71 -95.8022,-73.372 -91.7202,-76.907 -94.8762,-79.369 -98.1802,-81.915 -101.4412,-84.734 H -101.4622 C -101.4622,-84.755 -101.4832,-84.755 -101.4832,-84.755 -105.0392,-87.764 -108.5322,-91.089 -111.5832,-94.918 -114.5292,-98.622 -117.1802,-102.767 -118.7382,-107.481 -118.7592,-107.543 -118.7802,-107.585 -118.8012,-107.649 -118.8222,-107.691 -118.8432,-107.733 -118.8432,-107.775 -119.0322,-108.301 -119.1582,-108.743 -119.2842,-109.185 -119.2842,-109.185 -119.2632,-93.951 -100.0532,-77.896 -102.8512,-75.392 -105.5452,-72.678 -107.9222,-69.606 -111.3522,-65.25 -114.1722,-60.137 -115.6442,-54.603 -117.1592,-49.069 -117.3282,-43.24 -116.5492,-37.749 -115.8132,-32.172 -114.2772,-26.954 -112.1942,-21.841 -109.9212,-16.665 -106.9542,-11.994 -103.3352,-7.806 -102.7882,-7.175 -102.2412,-6.565 -101.6732,-5.976 -100.2422,-4.46 -98.7272,-3.03 -97.1282,-1.683 -95.1502,0 -93.0252,1.536 -90.8152,2.904 -90.7102,2.967 -90.6262,3.03 -90.5212,3.093 -86.2492,5.681 -81.6622,7.744 -76.9492,9.237 H -76.9282 C -76.5922,9.364 -76.2552,9.469 -75.9182,9.574 -70.7202,11.152 -65.3762,11.994 -60.0312,12.415 -54.6862,12.814 -49.3432,12.709 -44.0602,12.12 -33.6242,11.005 -23.4402,8.249 -13.9292,4.145 -13.8872,4.145 -13.8242,4.124 -13.7822,4.082 M -59.8213,-69.4556 -59.8423,-69.4896 C -62.4593,-73.7296 -65.6743,-77.5486 -69.1203,-80.9946 -69.1213,-80.9956 -69.1223,-80.9976 -69.1233,-80.9976 L -69.1213,-80.9956 C -72.5973,-84.4816 -76.3003,-87.4596 -79.8383,-90.2936 L -79.8663,-90.3166 -79.8993,-90.3426 C -80.6113,-90.8876 -81.3123,-91.4246 -82.0233,-91.9706 -78.4533,-94.6466 -74.9893,-97.3866 -71.9113,-100.4386 -70.2483,-102.0806 -68.6933,-103.8216 -67.3233,-105.6726 H -98.7943 C -98.8693,-105.7486 -98.9623,-105.8306 -99.0353,-105.9076 -99.9783,-106.8946 -100.8253,-107.8666 -101.6103,-108.8296 H -65.2573 C -64.5863,-110.0066 -63.9913,-111.2256 -63.5103,-112.4986 -61.8693,-116.6986 -61.4363,-121.3666 -61.9963,-126.0126 H -106.9843 C -106.9253,-126.9786 -106.8413,-127.9296 -106.7113,-128.8326 L -106.7093,-128.8436 C -106.6943,-128.9616 -106.6823,-129.0616 -106.6693,-129.1686 H -62.5293 C -63.3903,-133.5486 -64.9153,-137.8516 -66.7173,-142.0396 -63.9423,-137.5986 -61.5163,-132.8416 -60.1373,-127.6306 -58.7793,-122.4566 -58.5113,-116.7396 -60.1313,-111.3666 -61.7153,-105.9936 -64.8473,-101.2116 -68.4803,-97.1806 -69.9513,-95.5526 -71.5013,-94.0326 -73.0803,-92.5566 -58.7003,-79.6116 -56.1353,-61.7956 -56.1353,-61.7956 L -56.1903,-61.8636 C -57.1713,-64.4536 -58.3763,-66.9876 -59.8003,-69.4196 Z" /></g></g></svg>
