<?xml version="1.0" encoding="UTF-8" standalone="no"?>
<svg
   xmlns:dc="http://purl.org/dc/elements/1.1/"
   xmlns:cc="http://creativecommons.org/ns#"
   xmlns:rdf="http://www.w3.org/1999/02/22-rdf-syntax-ns#"
   xmlns:svg="http://www.w3.org/2000/svg"
   xmlns="http://www.w3.org/2000/svg"
   xmlns:sodipodi="http://sodipodi.sourceforge.net/DTD/sodipodi-0.dtd"
   xmlns:inkscape="http://www.inkscape.org/namespaces/inkscape"
   inkscape:version="1.0 (4035a4f, 2020-05-01)"
   sodipodi:docname="phytoid-logo-2.svg"
   viewBox="0 0 114.3665 49.760421"
   height="49.760422"
   width="114.3665"
   xml:space="preserve"
   id="svg851"
   version="1.1">
  <metadata
   id="metadata857">
    <rdf:RDF>
      <cc:Work
   rdf:about="">
        <dc:format>image/svg+xml</dc:format>

        <dc:type
   rdf:resource="http://purl.org/dc/dcmitype/StillImage" />

        <dc:title></dc:title>

      </cc:Work>

    </rdf:RDF>

  </metadata>

  <defs
   id="defs855">
    <clipPath
   id="clipPath867"
   clipPathUnits="userSpaceOnUse">
      <path
   inkscape:connector-curvature="0"
   id="path865"
   clip-rule="evenodd"
   d="M 0,0 H 612 V 792 H 0 Z" />

    </clipPath>

    <clipPath
   id="clipPath883"
   clipPathUnits="userSpaceOnUse">
      <path
   inkscape:connector-curvature="0"
   id="path881"
   clip-rule="evenodd"
   d="M 0,0 H 612 V 791.25 H 0 Z" />

    </clipPath>

    <clipPath
   id="clipPath895"
   clipPathUnits="userSpaceOnUse">
      <path
   inkscape:connector-curvature="0"
   id="path893"
   clip-rule="evenodd"
   d="M 0,0 H 612 V 791.25 H 0 Z" />

    </clipPath>

    <clipPath
   id="clipPath907"
   clipPathUnits="userSpaceOnUse">
      <path
   inkscape:connector-curvature="0"
   id="path905"
   clip-rule="evenodd"
   d="M 0,0 H 612 V 791.25 H 0 Z" />

    </clipPath>

    <clipPath
   id="clipPath929"
   clipPathUnits="userSpaceOnUse">
      <path
   inkscape:connector-curvature="0"
   id="path927"
   clip-rule="evenodd"
   d="M 0,0 H 612 V 791.25 H 0 Z" />

    </clipPath>

  </defs>

  <sodipodi:namedview
   inkscape:snap-global="false"
   inkscape:current-layer="g859"
   inkscape:window-maximized="0"
   inkscape:window-y="23"
   inkscape:window-x="0"
   inkscape:cy="41.07013"
   inkscape:cx="47.406647"
   inkscape:zoom="4"
   fit-margin-bottom="0"
   fit-margin-right="0"
   fit-margin-left="0"
   fit-margin-top="0"
   showgrid="false"
   id="namedview853"
   inkscape:window-height="907"
   inkscape:window-width="1600"
   inkscape:pageshadow="2"
   inkscape:pageopacity="0"
   guidetolerance="10"
   gridtolerance="10"
   objecttolerance="10"
   borderopacity="1"
   inkscape:document-rotation="0"
   bordercolor="#666666"
   pagecolor="#ffffff" />

  <g
   transform="matrix(1.3333333,0,0,1.3333333,336.71004,273.47915)"
   inkscape:label="Untitled document"
   inkscape:groupmode="layer"
   id="g859">
    <path
   sodipodi:nodetypes="ccsscccssccsscsccscc"
   id="path1040"
   d="M -221.68546,-184.62817 -221.3037,-185.62796 -223.8352,-191.9759 C -225.22753,-195.46727 -226.36671,-198.36248 -226.36671,-198.4097 -226.36671,-198.45692 -225.87261,-198.47144 -225.26872,-198.44197 L -224.17072,-198.38838 -222.30018,-193.43838 C -221.27137,-190.71588 -220.37918,-188.36688 -220.31752,-188.21838 -220.25363,-188.06452 -219.71242,-189.41948 -219.05931,-191.36838 -218.42895,-193.24938 -217.61943,-195.61863 -217.26038,-196.63338 L -216.60755,-198.47838 H -215.54713 C -214.9639,-198.47838 -214.48671,-198.4468 -214.48671,-198.40819 -214.48671,-198.05973 -220.0235,-183.24213 -220.45907,-182.42492 -224.38587,-173.66646 -235.6682,-168.77287 -243.08324,-172.38947 -252.48986,-176.97745 -251.61358,-190.06737 -249.81515,-202.90272 -249.81515,-202.90272 -243.6772,-203.12532 -243.47188,-202.90123 -237.88623,-202.73622 -238.50375,-193.20461 -243.66776,-193.14634 -245.37562,-193.12707 -248.40443,-192.86355 -248.40443,-192.86355 -252.00978,-166.39907 -227.08719,-170.54987 -221.68546,-184.62817 Z"
   style="fill:#005629;fill-opacity:1;stroke-width:0.18" /><path
   id="path4042"
   d="M -237.70671,-194.5094 V -203.51838 H -236.60954 -235.51237 L -235.57454,-200.19762 -235.63671,-196.87686 -235.18671,-197.30149 C -234.16066,-198.2697 -233.24827,-198.56838 -231.31671,-198.56838 -229.60661,-198.56838 -229.47852,-198.54141 -228.75216,-198.02838 -227.21902,-196.94553 -226.86373,-195.22857 -226.94571,-189.29838 L -226.99671,-185.60838 -228.02091,-185.55472 -229.04512,-185.50106 -229.10091,-190.32472 C -229.14959,-194.5326 -229.1974,-195.22284 -229.47546,-195.73168 -229.96891,-196.63471 -230.59309,-196.95071 -231.84885,-196.93326 -233.17672,-196.9148 -234.23382,-196.41948 -234.95128,-195.47956 L -235.45671,-194.81742 -235.54671,-190.2129 -235.63671,-185.60838 -236.67171,-185.5544 -237.70671,-185.50041 Z"
   style="fill:#005629;fill-opacity:1;stroke-width:0.18" /><path
   id="path4040"
   d="M -243.36423,-195.25315 C -242.25796,-195.80742 -241.78671,-196.66359 -241.78671,-198.11919 -241.78671,-199.40844 -242.21529,-200.19618 -243.19671,-200.71082 -243.80841,-201.03159 -244.30254,-201.09769 -246.48171,-201.15026 L -249.04671,-201.21214 V -198.07526 C -249.04671,-196.34998 -248.98596,-194.87545 -248.91171,-194.79854 -248.83746,-194.72163 -247.75435,-194.69452 -246.50481,-194.73831 -244.55926,-194.80649 -244.10812,-194.88044 -243.36423,-195.25315 Z"
   style="fill:#005629;fill-opacity:1;stroke-width:0.18" /><path
   id="path4036"
   d="M -197.87679,-187.1492 C -195.92047,-187.69248 -194.82032,-190.20802 -195.24072,-193.17666 -195.63586,-195.96681 -197.3288,-197.37436 -199.70316,-196.88683 -200.92687,-196.63557 -201.67802,-196.06316 -202.24756,-194.94789 -202.6494,-194.16102 -202.69671,-193.85035 -202.69671,-191.99838 -202.69671,-190.14641 -202.6494,-189.83574 -202.24756,-189.04887 -201.38217,-187.35428 -199.7277,-186.6352 -197.87679,-187.1492 Z"
   style="fill:#005629;fill-opacity:1;stroke-width:0.18" /><path
   id="path4034"
   d="M -201.07671,-185.56936 C -202.23396,-186.04053 -202.81224,-186.46127 -203.50213,-187.33405 -205.62267,-190.01673 -205.38225,-195.04106 -203.02777,-197.24725 -202.04415,-198.16892 -201.04157,-198.54489 -199.35196,-198.62567 -197.17829,-198.72959 -196.17812,-198.37991 -194.85824,-197.05456 -193.45516,-195.64567 -192.99534,-194.22087 -193.09772,-191.59939 -193.18014,-189.48893 -193.62088,-188.26145 -194.74168,-187.02085 -195.80198,-185.84723 -196.83162,-185.43603 -198.82671,-185.38944 -199.85239,-185.36548 -200.75281,-185.43748 -201.07671,-185.56936 Z"
   style="fill:#005629;fill-opacity:1;stroke-width:0.18" /><path
   id="path4032"
   d="M -210.48948,-185.69701 C -211.09967,-185.97395 -211.34581,-186.22873 -211.65948,-186.90806 -212.02992,-187.71036 -212.06066,-188.07489 -212.11535,-192.31338 L -212.174,-196.85838 H -213.06035 -213.94671 V -197.56149 -198.2646 L -213.04919,-198.38804 C -212.07273,-198.52234 -212.03154,-198.58664 -211.68497,-200.51775 -211.61693,-200.8969 -211.47023,-201.23439 -211.35898,-201.26772 -211.24773,-201.30104 -210.93725,-201.3763 -210.66902,-201.43494 L -210.18132,-201.54157 -210.12902,-200.05498 -210.07671,-198.56838 -208.32171,-198.51686 -206.56671,-198.46534 V -197.66186 -196.85838 H -208.36671 -210.16671 L -210.16309,-193.48338 C -210.15879,-189.47551 -209.9792,-187.95024 -209.4495,-187.42272 -209.12893,-187.10348 -208.87587,-187.05307 -207.73016,-187.08026 L -206.38671,-187.11214 V -186.33776 C -206.38671,-185.61445 -206.42381,-185.55596 -206.94921,-185.45088 -208.0719,-185.22634 -209.70216,-185.33968 -210.48948,-185.69701 Z"
   style="fill:#005629;fill-opacity:1;stroke-width:0.18" />

    

  <path
   style="fill:#450000;fill-opacity:1;stroke-width:0.18"
   d="M -190.10426,-185.74338 C -190.1517,-185.86713 -190.16941,-189.73488 -190.14361,-194.33838 L -190.09671,-202.70838 -188.43171,-202.76014 -186.76671,-202.81189 V -194.16514 -185.51838 H -188.39236 C -189.52687,-185.51838 -190.04406,-185.58636 -190.10426,-185.74338 Z M -183.16671,-194.13661 V -202.79838 H -180.32699 C -176.97726,-202.79838 -174.88539,-202.56753 -173.48402,-202.04321 -170.1461,-200.79433 -168.62303,-198.62519 -168.45083,-194.87502 -168.30308,-191.65717 -169.01095,-189.55834 -170.79341,-187.92927 -172.83222,-186.06591 -174.1782,-185.69027 -179.25171,-185.56867 L -183.16671,-185.47484 Z M -174.75584,-188.7424 C -172.7471,-189.63217 -171.75426,-191.42905 -171.76332,-194.15838 -171.77266,-196.97188 -172.53957,-198.45785 -174.47371,-199.41003 -175.55701,-199.94333 -175.82572,-199.99654 -177.78962,-200.06656 L -179.92671,-200.14275 V -194.16161 -188.18046 L -177.81171,-188.25305 C -176.09823,-188.31185 -175.51809,-188.40475 -174.75584,-188.7424 Z"
   id="path850"
   inkscape:connector-curvature="0"
   sodipodi:nodetypes="cccccccscccsscsscccsccccccc" />
<path
   style="fill:#ffffff;fill-opacity:1;stroke:none;stroke-width:0.75085px;stroke-linecap:butt;stroke-linejoin:miter;stroke-opacity:1"
   d="M -248.75897,-203.59241 C -248.70407,-202.39405 -248.58112,-200.86961 -248.36864,-200.80867 -247.36182,-200.54138 -246.40832,-201.30936 -245.33029,-201.82744 -246.45194,-200.69084 -247.42338,-200.22548 -248.3581,-199.92417 -248.4279,-199.04785 -248.45146,-198.5988 -248.17837,-197.59896 -246.37285,-197.54265 -245.77768,-198.43066 -244.60114,-198.85744 -245.55676,-198.08945 -246.28671,-196.87701 -248.01356,-196.57372 -248.23228,-196.12159 -247.9991,-195.31539 -247.89655,-194.87742 -246.88816,-194.6858 -244.61965,-195.74767 -243.442,-196.3124 -244.58883,-195.39342 -246.57252,-194.05266 -247.85767,-193.99416 -248.00583,-193.75656 -247.88151,-192.69658 -247.87464,-192.46582 L -248.4203,-192.37438 C -248.45359,-192.78054 -248.66707,-193.1826 -248.66707,-193.1826 L -248.69602,-194.00784 -248.81302,-195.70415 -248.85838,-196.73464 -248.91639,-199.01305 -249.07473,-199.89106 C -249.07473,-199.89106 -248.82792,-202.24731 -248.75897,-203.59241 Z"
   id="path4062"
   inkscape:connector-curvature="0"
   sodipodi:nodetypes="ccccccccccccccccccc" /></g>

</svg>
