<?xml version="1.0" encoding="UTF-8" standalone="no"?>
<!-- Created with Inkscape (http://www.inkscape.org/) -->

<svg
   version="1.1"
   id="svg824"
   xml:space="preserve"
   width="1127.9297"
   height="292.64395"
   viewBox="0 0 1127.9297 292.64395"
   sodipodi:docname="phytoid-horizontal.svg"
   inkscape:version="1.1 (c4e8f9e, 2021-05-24)"
   xmlns:inkscape="http://www.inkscape.org/namespaces/inkscape"
   xmlns:sodipodi="http://sodipodi.sourceforge.net/DTD/sodipodi-0.dtd"
   xmlns="http://www.w3.org/2000/svg"
   xmlns:svg="http://www.w3.org/2000/svg"><defs
     id="defs828"><clipPath
       clipPathUnits="userSpaceOnUse"
       id="clipPath838"><path
         d="M 0,720 H 720 V 0 H 0 Z"
         id="path836" /></clipPath></defs><sodipodi:namedview
     id="namedview826"
     pagecolor="#ffffff"
     bordercolor="#666666"
     borderopacity="1.0"
     inkscape:pageshadow="2"
     inkscape:pageopacity="0.0"
     inkscape:pagecheckerboard="0"
     showgrid="false"
     inkscape:zoom="0.34766083"
     inkscape:cx="133.75105"
     inkscape:cy="208.53658"
     inkscape:window-width="1680"
     inkscape:window-height="997"
     inkscape:window-x="0"
     inkscape:window-y="25"
     inkscape:window-maximized="1"
     inkscape:current-layer="g830"
     fit-margin-top="20"
     fit-margin-left="20"
     fit-margin-right="20"
     fit-margin-bottom="20" /><g
     id="g830"
     inkscape:groupmode="layer"
     inkscape:label="836_PhytoID_DV (1)"
     transform="matrix(1.3333333,0,0,-1.3333333,-347.07719,690.6874)"><path
       id="path866"
       style="fill:#00600b;fill-opacity:1;fill-rule:nonzero;stroke:none;stroke-width:1.50267"
       d="M 1035.9012,427.08313 V 360.46963 H 1057.3564 C 1070.7497,360.46963 1081.2985,365.44798 1081.2985,380.85639 V 406.81507 C 1081.2985,422.22349 1070.7497,427.08313 1057.3564,427.08313 Z M 1035.6653,352.29208 C 1034.7186,352.29208 1025.946,352.5295 1025.946,358.21862 V 435.26068 H 1057.3564 C 1074.7784,435.26068 1091.2552,429.33564 1091.2552,407.88197 V 379.67229 C 1091.2552,358.21862 1074.7784,352.29208 1057.3564,352.29208 Z M 973.32147,436.44689 C 973.32147,436.44689 983.27668,436.44689 983.27668,430.52035 V 351.10707 C 983.27668,351.10707 973.32147,351.10707 973.32147,357.03362 Z M 921.88287,408.82941 C 921.88287,421.15734 918.20733,428.50541 899.00617,428.50541 880.04093,428.50541 876.3669,421.15734 876.3669,408.82941 V 378.72335 C 876.3669,366.39692 880.04093,359.04885 899.00617,359.04885 918.20733,359.04885 921.88287,366.39692 921.88287,378.72335 Z M 931.83808,377.18161 C 931.83808,360.7078 921.40802,350.8698 899.12338,350.8698 876.72303,350.8698 866.41018,360.7078 866.41018,377.18161 V 410.37115 C 866.41018,426.84496 876.72303,436.68446 899.12338,436.68446 921.40802,436.68446 931.83808,426.84496 931.83808,410.37115 Z M 809.16179,427.08313 V 351.10647 C 809.16179,351.10647 799.20358,351.10647 799.20358,357.03301 V 427.08313 H 780.47726 C 773.2464,427.08313 772.1795,433.48302 772.1795,437.03984 772.1795,437.03984 774.3133,435.26068 782.37364,435.26068 H 826.34937 C 834.4082,435.26068 836.5405,437.03984 836.5405,437.03984 836.5405,433.48302 835.4736,427.08313 828.24274,427.08313 Z M 710.07267,357.15158 V 387.9684 C 696.44192,400.29483 688.26287,426.2535 682.0989,435.61666 682.0989,435.61666 683.52193,435.97279 685.53702,435.97279 688.85492,435.97279 693.24122,434.9059 696.32321,429.21678 702.8418,416.88885 707.70145,403.37831 715.05102,396.02874 722.28038,403.37831 727.14003,416.88885 733.77734,429.21678 736.85932,434.9059 741.24562,435.97279 744.56352,435.97279 746.57861,435.97279 748.00164,435.61666 748.00164,435.61666 741.83767,426.2535 733.53991,400.29483 720.02788,387.9684 V 351.10632 C 720.02788,351.10632 710.07267,351.10632 710.07267,357.15158 M 638.71988,391.05053 H 594.03489 V 351.10647 C 594.03489,351.10647 584.07818,351.10647 584.07818,357.03301 V 436.44629 C 584.07818,436.44629 594.03489,436.44629 594.03489,430.51974 V 399.34679 H 638.71988 V 436.44629 C 638.71988,436.44629 648.67509,436.44629 648.67509,430.51974 V 351.10647 C 648.67509,351.10647 638.71988,351.10647 638.71988,357.03301 Z M 501.46601,427.08313 V 388.79802 H 512.36941 C 525.76274,388.79802 535.12739,391.40666 535.12739,407.99918 535.12739,423.40909 525.76274,427.08313 512.36941,427.08313 Z M 491.5093,435.26068 H 512.36941 C 529.79441,435.26068 545.08411,430.28232 545.08411,409.06608 V 406.93379 C 545.08411,386.3096 529.79441,380.62048 512.36941,380.62048 H 501.46601 V 351.10647 C 501.46601,351.10647 491.5093,351.10647 491.5093,357.03301 Z" /><g
       id="g880"
       transform="translate(247.2896,222.1987)" /><g
       id="g888"
       transform="translate(275.771,227.3984)" /><g
       id="g896"
       transform="translate(315.9819,226.2671)" /><g
       id="g900"
       transform="translate(328.5396,222.1987)" /><g
       id="g904"
       transform="translate(345.7666,218.1162)" /><g
       id="g908"
       transform="translate(361.1602,226.2671)" /><g
       id="g912"
       transform="translate(372.5146,227.3984)" /><g
       id="g916"
       transform="translate(388.9844,219.7495)" /><g
       id="g920"
       transform="translate(399.7217,220.3652)" /><g
       id="g924"
       transform="translate(430.9834,218.1162)" /><g
       id="g928"
       transform="translate(444.6582,222.1987)" /><g
       id="g932"
       transform="translate(459.6367,226.2671)" /><g
       id="g936"
       transform="translate(474.4277,221.124)" /><g
       id="g940"
       transform="translate(489.6494,227.3984)" /><g
       id="g944"
       transform="translate(501.0781,223.9175)" /><g
       id="g952"
       transform="translate(384.8711,405.4033)" /><g
       id="g956"
       transform="translate(431.0156,478.8989)"><path
         d="M 0,0 H -0.021 C -0.042,0.021 -0.084,0.021 -0.105,0.042 -0.063,0.042 -0.042,0.021 0,0"
         style="fill:#007f06;fill-opacity:1;fill-rule:nonzero;stroke:none"
         id="path958" /></g><g
       id="g960"
       transform="translate(430.9102,478.9409)" /><g
       id="g964"
       transform="translate(378.9463,419.4419)" /><g
       id="g968"
       transform="translate(443.0029,469.0186)" /><g
       id="g972"
       transform="translate(444.6924,474.8589)"><path
         id="path974"
         style="fill:#00600b;fill-opacity:1;fill-rule:nonzero;stroke:none"
         d="M 0,0 C 0,0 -16.749,1.473 -35.434,-9.889 -36.802,-10.71 -38.148,-11.446 -39.495,-12.099 -41.073,-12.856 -42.651,-13.487 -44.188,-13.971 -58.096,-18.517 -70.384,-13.298 -75.687,-1.894 -75.854,-1.599 -75.981,-1.283 -76.129,-0.968 -74.214,-0.063 -72.173,0.694 -70.047,1.368 -47.996,8.291 -15.781,4.292 -13.698,4.04 -13.719,4.061 -13.761,4.061 -13.782,4.082 -23.756,7.07 -34.003,8.88 -44.271,9.258 -54.561,9.595 -64.893,8.375 -74.445,5.05 -75.519,4.671 -76.592,4.25 -77.644,3.809 -77.706,4.082 -77.77,4.356 -77.833,4.65 -77.791,6.102 -77.496,7.659 -76.949,9.237 -73.729,18.58 -61.946,29.227 -42.378,28.07 -19.484,26.702 0,0 0,0 M -1.6895,-5.8403 C -1.7935,-5.8393 -1.8835,-5.8373 -2.0015,-5.8373 -6.6355,-5.8373 -18.8735,-6.7233 -32.3695,-14.9303 -33.9585,-15.8843 -35.4375,-16.6893 -36.9225,-17.4083 -37.4665,-17.6703 -38.0095,-17.9133 -38.5515,-18.1483 -37.5445,-18.9343 -36.5535,-19.7383 -35.5855,-20.5693 -19.3615,-34.8793 -9.1115,-55.8173 -9.1115,-79.0953 -9.1115,-122.1253 -44.1035,-157.1173 -87.1335,-157.1173 -130.1635,-157.1173 -165.1765,-122.1253 -165.1765,-79.0953 -165.1765,-45.7603 -144.1525,-17.2533 -114.6785,-6.0923 -126.6095,-28.4193 -128.3555,-48.3443 -117.4935,-65.7143 L -117.4925,-65.6993 C -119.1695,-62.5713 -120.4805,-59.3423 -121.3385,-56.1173 -122.9575,-50.2033 -123.3235,-43.5503 -122.3835,-36.9213 -121.6375,-31.2773 -120.0865,-25.5993 -117.6485,-19.6173 -115.1085,-13.8253 -111.8125,-8.6043 -107.7925,-3.9533 -107.1735,-3.2383 -106.5535,-2.5493 -105.9115,-1.8843 -104.7255,-0.6273 -103.4195,0.6037 -102.0745,1.7967 -140.3165,-5.2573 -169.3845,-38.8443 -169.3845,-79.0953 -169.3845,-124.4403 -132.4785,-161.3263 -87.1335,-161.3263 -41.7885,-161.3263 -4.9025,-124.4403 -4.9025,-79.0953 -4.9025,-55.9293 -14.5375,-34.9733 -29.9945,-20.0153 -20.6255,-11.3613 -7.6515,-7.3273 -1.6895,-5.8403 M -65.7461,-55.417 C -69.9891,-65.417 -78.8501,-72.706 -88.0421,-79.886 -92.6501,-83.518 -97.4531,-87.143 -101.9941,-91.358 -104.2621,-93.446 -106.4671,-95.724 -108.4631,-98.225 -109.4991,-99.426 -110.3671,-100.843 -111.2991,-102.148 -112.1101,-103.572 -112.9261,-105 -113.6031,-106.497 -114.1721,-108.062 -114.9361,-109.525 -115.2501,-111.175 L -115.8391,-113.583 C -116.0111,-114.388 -116.0151,-115.226 -116.1001,-116.041 -116.1451,-116.861 -116.2711,-117.674 -116.2411,-118.486 L -116.0921,-120.913 C -116.0701,-122.534 -115.6781,-124.084 -115.3601,-125.632 -113.8881,-131.553 -111.1081,-136.809 -107.7391,-141.514 -107.6141,-141.688 -107.4951,-141.867 -107.3681,-142.04 -107.4251,-141.864 -107.4791,-141.689 -107.5361,-141.514 -109.3201,-135.975 -110.9361,-130.481 -111.1681,-125.023 -111.5311,-119.412 -110.2461,-114.109 -107.6071,-109.556 -104.8941,-105.012 -100.9031,-101.133 -96.5651,-97.48 -92.2071,-93.825 -87.4571,-90.371 -82.7231,-86.675 -78.0121,-82.956 -73.2611,-79.001 -69.0591,-74.272 -64.8661,-69.586 -61.2641,-63.95 -59.4351,-57.687 -57.4861,-51.457 -57.4551,-44.856 -58.6041,-38.769 -59.2451,-35.727 -60.1701,-32.804 -61.3041,-29.993 -62.4431,-27.165 -63.7951,-24.449 -65.2851,-21.839 -64.7251,-24.584 -64.1681,-27.297 -63.7161,-29.993 -63.1971,-33.09 -62.8211,-36.165 -62.7921,-39.232 -62.6911,-44.939 -63.6471,-50.459 -65.7461,-55.417 M -13.7822,4.082 C -23.7562,7.07 -34.0032,8.88 -44.2712,9.258 -54.5602,9.595 -64.8922,8.375 -74.4452,5.05 -75.5182,4.671 -76.5922,4.25 -77.6432,3.809 -78.4012,3.514 -79.1372,3.177 -79.8742,2.841 -82.3362,1.705 -84.6922,0.4 -86.9442,-1.052 -87.2382,-1.241 -87.5542,-1.431 -87.8482,-1.641 -89.7842,-2.967 -91.6152,-4.418 -93.3402,-5.976 -95.2972,-7.722 -97.1282,-9.616 -98.7902,-11.636 -101.9252,-15.423 -104.5342,-19.779 -106.3232,-24.219 -108.0062,-28.848 -109.4582,-33.73 -110.0262,-38.569 V -38.758 H -66.9542 V -39.032 L -66.9332,-39.158 C -66.9332,-39.937 -67.0172,-40.884 -67.0802,-41.915 H -110.3002 C -110.4682,-45.639 -110.0902,-49.321 -109.1852,-52.856 -108.6372,-55.023 -107.8172,-57.085 -106.8282,-59.106 H -72.9302 C -73.1822,-59.463 -73.4142,-59.842 -73.6872,-60.2 -74.2142,-60.894 -74.7612,-61.567 -75.3492,-62.262 H -105.0602 C -104.3452,-63.398 -103.5882,-64.535 -102.7462,-65.628 -99.5902,-69.71 -95.8022,-73.372 -91.7202,-76.907 -94.8762,-79.369 -98.1802,-81.915 -101.4412,-84.734 H -101.4622 C -101.4622,-84.755 -101.4832,-84.755 -101.4832,-84.755 -105.0392,-87.764 -108.5322,-91.089 -111.5832,-94.918 -114.5292,-98.622 -117.1802,-102.767 -118.7382,-107.481 -118.7592,-107.543 -118.7802,-107.585 -118.8012,-107.649 -118.8222,-107.691 -118.8432,-107.733 -118.8432,-107.775 -119.0322,-108.301 -119.1582,-108.743 -119.2842,-109.185 -119.2842,-109.185 -119.2632,-93.951 -100.0532,-77.896 -102.8512,-75.392 -105.5452,-72.678 -107.9222,-69.606 -111.3522,-65.25 -114.1722,-60.137 -115.6442,-54.603 -117.1592,-49.069 -117.3282,-43.24 -116.5492,-37.749 -115.8132,-32.172 -114.2772,-26.954 -112.1942,-21.841 -109.9212,-16.665 -106.9542,-11.994 -103.3352,-7.806 -102.7882,-7.175 -102.2412,-6.565 -101.6732,-5.976 -100.2422,-4.46 -98.7272,-3.03 -97.1282,-1.683 -95.1502,0 -93.0252,1.536 -90.8152,2.904 -90.7102,2.967 -90.6262,3.03 -90.5212,3.093 -86.2492,5.681 -81.6622,7.744 -76.9492,9.237 H -76.9282 C -76.5922,9.364 -76.2552,9.469 -75.9182,9.574 -70.7202,11.152 -65.3762,11.994 -60.0312,12.415 -54.6862,12.814 -49.3432,12.709 -44.0602,12.12 -33.6242,11.005 -23.4402,8.249 -13.9292,4.145 -13.8872,4.145 -13.8242,4.124 -13.7822,4.082 M -59.8213,-69.4556 -59.8423,-69.4896 C -62.4593,-73.7296 -65.6743,-77.5486 -69.1203,-80.9946 -69.1213,-80.9956 -69.1223,-80.9976 -69.1233,-80.9976 L -69.1213,-80.9956 C -72.5973,-84.4816 -76.3003,-87.4596 -79.8383,-90.2936 L -79.8663,-90.3166 -79.8993,-90.3426 C -80.6113,-90.8876 -81.3123,-91.4246 -82.0233,-91.9706 -78.4533,-94.6466 -74.9893,-97.3866 -71.9113,-100.4386 -70.2483,-102.0806 -68.6933,-103.8216 -67.3233,-105.6726 H -98.7943 C -98.8693,-105.7486 -98.9623,-105.8306 -99.0353,-105.9076 -99.9783,-106.8946 -100.8253,-107.8666 -101.6103,-108.8296 H -65.2573 C -64.5863,-110.0066 -63.9913,-111.2256 -63.5103,-112.4986 -61.8693,-116.6986 -61.4363,-121.3666 -61.9963,-126.0126 H -106.9843 C -106.9253,-126.9786 -106.8413,-127.9296 -106.7113,-128.8326 L -106.7093,-128.8436 C -106.6943,-128.9616 -106.6823,-129.0616 -106.6693,-129.1686 H -62.5293 C -63.3903,-133.5486 -64.9153,-137.8516 -66.7173,-142.0396 -63.9423,-137.5986 -61.5163,-132.8416 -60.1373,-127.6306 -58.7793,-122.4566 -58.5113,-116.7396 -60.1313,-111.3666 -61.7153,-105.9936 -64.8473,-101.2116 -68.4803,-97.1806 -69.9513,-95.5526 -71.5013,-94.0326 -73.0803,-92.5566 -58.7003,-79.6116 -56.1353,-61.7956 -56.1353,-61.7956 L -56.1903,-61.8636 C -57.1713,-64.4536 -58.3763,-66.9876 -59.8003,-69.4196 Z" /></g></g></svg>
